<svg version="1.2" xmlns="http://www.w3.org/2000/svg" viewBox="0 0 720 720" width="720" height="720">
	<style>
		.s0 { fill: #2c2e35 } 
		.s1 { fill: #ffffff } 
	</style>
	<path id="Path 1" fill-rule="evenodd" class="s0" d="m430.58 136.17c-0.5-0.07-1.34-0.92-2.22-0.65-0.89-0.82 4.16-1.74 4.84-1.81 7.2-0.79 14.26-0.24 21.4-0.32 0.6-0.01 4.03-0.05 3.59-1.34-5.22-2.73-11.15-2.19-16.77-2.92-1.36-0.17-2.54-1-3.91-1.17-2.78-0.33-6.27 0.83-8.51-1 2.9-0.41 6.22-0.57 9.15-0.27 1.33 0.14 2.53 0.98 3.92 1.16 3.76 0.49 8.13 0.1 11.36 1.98 2.55 0.33-0.9-2.88-1.41-3.21-3.91-2.49-10.55-4.45-14.77-6.97-0.42-1.73 0.92-1.42 2.23-1.27 2.45 0.26 6.42 3.69 7.29 0.33l-14.6-9.22c-0.08-1.24 1.23-0.51 1.86-0.27 2.34 0.93 5.07 3.32 6.86 3.94 0.78 0.27 2.39 0.7 2.07-0.79-5.89-4.45-10.98-9.72-16.45-14.67-0.7-0.64-1.59-0.94-1.32-2.16 1.04-0.95 11.19 7.26 12.86 8.39 8.74 5.92 14.85 9.33 24.32 13.78 2.1 0.98 4.12 4.29 5.38 4.83 1.15 0.5 2.05-0.3 2.74-0.14 7.17 1.71 13.71 6.73 20.39 9.33 0.83-3.23 2.19-6.28 3.33-9.4 2.06-5.69 3.94-11.63 7.05-17.06 1.43-2.5 5.89-10.36 9-8.8 4.54 2.26 14.88 40.51 16.83 47.3l1.58 0.65c0.66-4.53-1.58-8.98 0.01-13.33l0.95 0.62 2.86 19.69c2.02 0.38 2.5-0.8 2.89-2.49 2.56-11.03 4.64-22.18 6.77-33.23l2.39-6.81-4.44 50.78c1.66 0.08 2.62-3.2 3.29-4.64 2.53-5.49 4.92-11.21 6.87-16.94 1.85-0.53 1.44 1.61 1.22 2.81-0.91 5.13-3.17 11.28-4.23 16.72-0.09 0.45-0.67 2.66 0.47 1.75l22.23-37.15c2.04-0.37 1.25 1.16 0.77 2.37-2.28 5.69-8.3 13.32-11.35 19.12-0.46 0.87-1.14 1.45-0.86 2.63 1.12 0.23 1.57-0.57 2.23-1.26 4.45-4.57 8.73-11.87 13-16.84l1.29 0.65-13.34 22.86 0.94 0.93 13.07-11.04c12.78-8.86 24.72-20.03 39.18-26.22 2.96-1.27 5.7-2.59 9.02-2.72 0.29 1.35-0.69 1.44-1.47 2.01-5.32 3.84-12.61 6.34-17.57 11.01-0.3 1.52 1.22 1.04 2.05 0.77 1.73-0.55 3.75-2.15 5.45-2.8 3.07-1.19 6.36-1.9 9.32-3.37l-0.62 1.91-25.04 12.42-2.59 2.18 5.23-0.17c5.49-1.86 11.56-3.67 17.35-4.88 0.59-0.13 2.36-0.48 2.17 0.59-5.66 2.56-11.79 3.65-17.66 5.51-0.91 0.29-1.62 0.99-2.51 1.3-1.6 0.55-3.86-0.28-4.58 2.08l29.83-3.17c0.33 1.9-0.5 1.01-1.48 1.34-5.48 1.84-11.23 2.72-16.92 3.75-0.17 1.69-0.01 1.02 0.95 1.25 2.9 0.69 5.88 0.67 8.85 0.68l4.16 1.86-16.79-1.29c-1.16 0.48-4.02-0.03-3.52 1.92 3.43 0.06 7.63 3.26 10.51 3.79 2.66 0.48 4.67-0.68 6.92-0.63 15.94 0.41 32 10.75 43.52 21.29 0.47 0.43 6.04 6 2.86 4.76-1.98-0.77-5.24-4.98-7.95-4.11l7.62 10.16c0.39 1.92-2.21-0.06-1.91 1.9 0.29 1.95 3.47 4.24 3.18 6.66l-7.94-8.25c-2.21-0.14 0.2 2.19 0.26 3.47 0.03 0.47-0.4 1.93-0.88 2.24l-8.27-10.15c-1.52-0.3-1.03 1.21-0.77 2.04 0.77 2.48 3.97 5.37 4.29 7.15 0.21 1.22-0.31 1.05-1.27 0.95l-15.57-18.39c-1.45 1.12-0.69 0.93-0.07 1.96 1.83 3.05 4.24 6.04 5.46 9.46l-8.57-10.79c-1.29-0.28-1.12 0.64-0.91 1.54 0.43 1.89 5.1 9.65 4.4 10.51-0.93 1.15-1.4-0.89-1.63-1.19-2.78-3.75-5.16-7.75-7.9-11.49l-1.27 0.31 4.45 9.2-6.34-6.98c-0.16 2.42 2.1 4.63 2.91 6.95l-1 1.3-4.76-7.61c-1.94 0.86 0.29 4.74-0.33 6.35h-1.9l-1.27-2.54 1.26 7.61-4.12-6.97-0.96 3.16-3.17-6.35-1.29 0.37-0.62 5.98c-1.71-0.25-0.26-3.82-2.52-3.17-1.66 5.39 0.01 3.93 2.3 5.95 13.13 11.61 30.09 20.67 37.78 37.45 0.9 1.96 2.17 3.85 1.81 6.12-4.11-4.56-6.47-10.58-11.75-13.96l-1.89 1.89-4.46-6.97-1.9 2.52-11.43-12.68c-2.86 0.44 0.15 2.81 0.26 3.04 0.36 0.72 2.81 5.6 2.6 5.84-3.24-0.31-3.01-6.32-5.72-4.75-0.21 1.13 0.67 1.94 0.96 2.85 0.15 0.46 0.91 2.46-0.32 1.59l-5.09-9.84-1.89-0.01c-1.5 1.47 3.75 8.24 0.64 9.53l-4.78-8.89-0.94 3.49-1.25 0.31c-1.52-3-3.78-4.28-3.86-8.23l-1.87-0.02c-0.47 2.48-0.94 4.77-1.28 7.3-0.11 0.86-0.33 1.97-1.25 0.96l-2.22-7.63c-1.37-1.58-1.08 1.39-2.23 1.28l-0.64-3.17-2.53 1.26-2.56-5.07-1.27 0.32c-0.26 0.67 2.28 5.48 0.33 5.38-2.11-0.12-1.42-6.5-4.76-5.7l-0.53 3.69c13.54 10.55 26.36 23.5 36.98 36.99 19.44 24.71 28.15 39.24 19.89 71.85l-2.38 5.55v-18.09c0-0.16-0.53-2.44-0.66-3.16-0.19-1.03 0.44-1.11-1.24-0.96l-1.26 10.78-3.19-17.77c-2.56-0.3-1.73 3.08-3.16 3.8-1.43-3.67 0.49-8.21-1.6-11.41-1.46 5.54-1.01 11.5-2.86 17.13-1.06 0.17-0.68-1.54-0.66-2.24 0.08-2.49 1.95-12.52-0.3-13.62-1.21-0.59-1.03 1.26-1.23 1.91-0.81 2.66-1.52 5.23-2.25 7.92-0.24 0.87 0.03 1.97-1.26 2.22 0.19-3.42-0.28-7.1-0.03-10.5 0.31-4.14 3.12-10.39 0.03-13.62l-2.55 15.87c-0.77 1.04-1.15-0.01-1.27-0.94-0.74-5.8 1.11-11.81 0-17.47-1.66-0.19-1.01 0.02-1.29 0.93-0.66 2.14-0.68 4.46-0.62 6.69-0.41 0.04-1.26-0.85-1.26-0.96v-11.11c-1.44-0.35-1.5 0.57-1.73 1.74-0.83 4.2-0.09 7.6-1.64 12.37-0.21 0.66-0.16 1.91-1.07 1.76l0.96-28.57c-2.2-1.5-1.4 2.87-1.73 4-0.39 1.33-1.63 2.21-1.79 3.62l-2.52-2.54c-0.38 2.07-0.38 4.52-0.81 6.51-0.13 0.61-0.23 1.9-1.1 1.75-0.93-6.52 1.65-12.08 1.26-18.41-2.22 1.01-0.83 3.99-1.39 5.9-0.25 0.83-1.43 1.56-1.91 2.53-0.84 1.7-0.9 4.06-3.03 4.9-1.28-6.39 0.22-13.39-2.53-19.43l-2.55 0.38c-0.63-0.7 2.7-8.4-1.27-8.25l-2.56 10.79-1.58-6.97c-1.75 2.19-0.59 5.53-3.48 6.97 0-4.5 2.38-8.57 0.7-13.08-0.33-0.88 0.2-1.08-1.34-0.88l-0.79 7.14-2.38 6.82c-0.89-4.86 1.65-9 1.3-13.68-0.09-1.11 0.11-2.45-1.3-2.82-0.74 3.22-1.31 7.07-2.19 10.2-2.77 9.89-6.89 19.14-4.79 30.1 0.36 1.89 2.22 1.89 2.56 4.42 0.47 3.54-1.04 12.6-0.57 14.52 0.24 0.99 1.73 1.52 2.12 2.35 1.79 3.86-1.13 12.7-0.9 16.86 0.07 1.26 1.56 1.67 1.85 3.14 0.61 3.06-0.13 9.98-0.67 13.27-0.17 0.98-1.17 1.74-1.12 2.49 0.1 1.41 2.3 2.47 2.44 3.92 0.39 4.11-2.53 10.36-2.58 14-0.04 2.63 1.95 3.32 1.9 5.59l-3.73 14.73c0 1.2 1.47 1.67 1.76 2.63 0.58 1.89-3.54 13.01-4.35 15.78 2.83 6.02-1.35 13.42-3.73 19.14l1.73 4.14c-0.9 3.48-5.99 11.96-6.12 14.88-0.04 0.86 1.01 1.53 1.16 2.48 0.49 3.07-5.46 11.46-6.24 14.73-0.48 2.01 1.27 2.53 1.06 4.1-0.2 1.55-5.63 9.38-4.99 10 6.51 0.64 12.97 2.18 19.43 3.11 9.45 1.37 16.77 0.04 25.22 6.53 4.85 3.73 11.01 16.95 12.58 22.97 0.84 3.23 0.74 8.9 1.66 11.04 0.82 1.92 10.76 12.84 12.69 13.34 1.79 0.46 3.68-0.09 5.48 0.23 18.04 3.23 26.24 17.26 33.74 32.29 8.48 17 10.09 35.76 9.82 54.62 4.73-0.28 10.03 3.48 13.79 6.2 3.98 2.87 6.79 5.44 9.49 9.59 7.19-1.52 16.54-2.36 17.83-11.2 1.03-7.12-1.22-14.12-0.79-21.1 2.45 2.47 7.11 5.34 8.7 8.44 2.48 4.84 1.83 15.58 1.07 21.01-1.06 7.63-8.09 16.1-16.12 16.89-9.22 0.9-19.49-0.15-28.56 0.65-7.36 0.64-16.52 3.86-24.18 5.02-21.34 3.22-43.12 4-64.74 5.1-111.79 5.69-223.97 1.81-335.85-1.22-17.35-0.47-35.4 0.13-52.66-1.3-18.94-1.57-6.28-11.47 2.01-17.03 23.2-15.56 60.75-29.77 87.47-38.86 11.26-3.83 23.06-6.53 33.98-11.08l-13.98-6.96c-0.98-0.99-0.22-2.68-1.23-3.85-2.25-2.58-12.73-5.94-14.96-8.53-1.33-1.54-0.55-3.03-1.55-4.17-1.76-2.01-9.93-5.14-12.74-8.2-1.38-1.5-1.06-2.85-2.13-4.22-2.23-2.85-10.43-6.35-12.5-9.12-0.95-1.26 0.12-2.18-0.52-3.23-2.05-3.36-11.14-7.78-12.79-10.73-0.88-1.58-0.28-3.07-0.91-4.16-1.04-1.8-8.82-6.97-10.81-9.52-2.12-2.72-0.62-3.78-1.52-5.26-1.46-2.38-11.18-8.93-11.79-11.81-0.2-0.95 0.62-1.89 0.01-3.23-0.87-1.92-8.24-7.83-10.16-10.86-1.35-2.14-0.2-2.42-0.46-3.94-0.41-2.36-10.4-11.62-10.48-13.53-0.04-1.17 0.73-2.24 0.35-3.62-0.47-1.72-8.12-9.19-9.08-11.91-0.67-1.88-0.02-3.57-0.48-5.24-0.76-2.73-7.69-9.74-8.48-13.12-0.32-1.36 0.67-2.54 0.09-4.49-0.9-3-7.16-10.05-7.9-13.15-0.34-1.42 1.45-2.07 1.09-3.47-1.33-3.16-8.12-13.12-7.4-15.88 0.17-0.64 1.14-1.16 1.04-1.95-0.39-2.91-5.86-10.66-6.64-14.39-0.44-2.13 1.01-2.68 0.78-4.48-0.49-3.72-4.85-9.97-5.45-13.69-0.38-2.41 1.23-3.69 1.12-4.91-0.25-2.86-3.75-8.62-4.26-12.21-0.57-3.94 1.23-8.24-0.68-12.35-1.88-1.35-2.43 5.54-2.53 6.68-1.06 11.58-1.49 25.07-1.94 36.78-0.31 8.16 0.69 14.65 1.25 22.3 1.1 15.17-0.36 29.86-0.59 45.04l-0.63 2.21c-0.58-11.34 0.75-23.37 0.02-34.63-0.24-3.79-1.63-7.91-1.92-11.4-1.49-18.11 0.66-40.52 1.24-59.07 0.07-2.42 2.42-8.05-1.24-8.54-0.84 8.17 1.1 18.47 0.03 26.38-0.28 2.09-1.67 2.32-1.94 3.78-0.7 3.77-1.11 11.16-1.3 15.2-0.3 6.58 0.83 14.75 0.03 20.99-0.11 0.88-0.48 2-1.27 0.95-0.44-10.81-1.48-23.22-0.66-34 1.24-16.32 6.1-21.02 2.07-39.48-0.34-1.56-0.13-5.97-0.91-7.02-0.45-0.62-3.69-0.78-4.97-2.33-5.33-6.5 1.7-13.25 7.33-16.21l0.94-7.63c-0.94 0.44-1.99 0.6-2.81 1.31-3.08 2.64-6.59 10.1-9.53 12.09-1.5 1.03-2.38-0.2-3.51 0.24-2.24 0.86-1.56 3.37-2.08 4.93-1.68 5-3.57 10.52-4.77 15.54-0.67 2.79 0.31 7.05-2.68 9.07l-0.12-7.83-1.79-1.06c-0.58 3.2-1.2 6.52-2.09 9.66-2.24 7.91-4.66 15.72-6.13 23.7-0.56 3 0.44 7.64-2.57 9.81-0.36-0.5 1.08-8.33 1.26-9.85 0.56-4.85 0.67-10.4 1.31-15.2 0.21-1.63 2.51-4.24 0.92-6.69-1.56 1.18-0.64 3.14-1.08 4.63-0.76 2.52-1.11 3.52-1.82 6.44-0.59 2.45-2.36 4.55-1.87 7.33l-1.19-6.1-1.34-0.88-3.82 17.78c-1.96-1.06-1.4-5.29-1.25-7.29 0.28-4.08 2.73-8.6 0.94-12.39-2.6 5.61-4.19 11.63-5.88 17.61-0.32 1.13 0.03 2.47-0.28 3.53-0.5 1.66-2.27 2.76-1.78 4.89l-2.53-3.18-3.19 22.22c-2.56 0.32-1.71-3.08-3.16-3.8l0.63 12.05c-1.82 0.35-1.02-0.49-1.44-1.38-1.52-3.28-0.6-5.68-1.66-8.52-1.02-2.71-1.87 0.69-1.98 1.97-0.48 5.29 1.18 12.2 0.68 16.54-0.24 2.06-1.5 2.2-1.82 3.27-1.22 4.04 2.11 10.39 1.77 14.79-1.89 0.33-1-0.5-1.33-1.49-1.15-3.38-2.02-6.36-2.48-9.93-0.93-0.89-1.15 0.05-1.27 0.94-0.15 1.25-0.17 3.87-0.03 5.12 0.65 5.6 2.07 13.41 3.25 18.97 0.65 3.08 2.51 6.48 2.49 9.88l-2.05-2.07-5.41-14.9-1.41-0.8c-1.5 3.73 0.6 6.46 1.21 9.89 0.27 1.53-0.11 3.21 0.2 4.88 0.52 2.82 2.52 5.45 1.75 8.71l-2.8-4.48c-0.53-2.21-0.56-4.23-2.59-5.66-1.17 0.77-0.89 1.68-0.98 2.82-0.3 3.69-0.62 7.43-0.61 11.14-0.87 1.17-1.83-5.84-1.9-6.68-0.45-5.81-0.28-12.21-0.64-18.08-3.69 0.38-0.64 6-2.85 8.25-1.48-2.34-2.01-6.43-2.22-9.21-2.41-32.28 3.1-63.83 18.08-92.38 2.42-4.61 5.9-8.95 8.05-13.53 1.73-3.66 2.41-8.16 4.88-11.65l-0.86-1.46c-4.37 5.34-6.35 12.19-9.21 18.39-1.21-0.34-1.17-0.85-1.02-1.91 0.67-4.59 5.84-14.77 8.41-18.95 1.74-2.82 7.19-8.32 7.24-11.18 0.01-0.62-0.4-3.94-1.29-4.14l-1.91 5.72-2.88-0.04c0.6 5.25-3.83 3.62-4.14 8.26h-1.83l-1.62-4.41c-2 1.87-0.67 4.75-0.33 6.97-2.96-1.33-0.87-5.03-2.86-6.97l-1.89 7.61-0.96-6.35-0.96 0.62c-0.7 4.57-1.49 9.1-2.2 13.67-0.15 0.95-0.05 1.97-1.28 2.22v-9.84l-1.27-0.65c-1.32 3.97-2.55 8.13-3.66 12.22-0.82 3.05-0.86 8.04-3.32 10.33-1.07-4.69 2.84-9.31 0.95-13.33-1.35 2.89-2.97 5.67-3.16 8.89l-4.13 10.79c0.14-2.15-0.27-4.52 0.02-6.63 0.4-2.86 1.49-6.74 2.03-10.04 0.26-1.64 2.53-3.74 0.16-5.54l-8.56 20.3c0.06-1.33-0.2-2.78 0.03-4.09 1.2-7.18 4.97-17.63 8.12-24.25 8.17-17.16 21.76-29.87 40.09-35.46 1.56-4.32 3.98-9.06 3.8-13.65-3.4 2.9-4.99 8.09-6.98 12.06-0.8 0.2-1.05-1.2-1.05-1.68-0.02-3.1 3.39-6.39 0.74-9.1l-5.39 10.15c-0.36-1.96 0.26-3.77 0.45-5.59 0.07-0.64 0.65-1.56-0.45-1.39-2.21 3.35-5 6.76-5.73 10.79-1.86 0.52-1.39-1.61-1.26-2.86 0.29-2.73 3.98-6.71 0.01-7.3l-6.04 13.33c-0.53-0.98-0.5-3.04-0.28-4.09 0.46-2.23 5.23-9.62 1.23-9.88 0.84 2.62-1.17 2.42-1.75 3.63-1.96 4.15-2.74 9.15-5.55 12.88-1.07-5.19 2.52-10.2 2.85-15.24l-1.85 0.05c-1.22 3.93-3.32 7.56-4.81 11.38-1.05 2.68-1.65 6.29-2.57 8.85-0.27 0.75-1.37 2.26-2.19 2.58l1.43-10.95 3.01-13.17c-1.48-0.31-2.19 2.18-2.78 3.25-2.62 4.7-3.43 10.51-6.73 14.52-0.79-2.71 0.7-4.75 1.11-6.82 0.72-3.66 1.25-7.45 2.22-11.1 0.34-1.27 3.36-4.09-0.15-4.3l-14.3 24.76c-0.95-3.43-0.2-6.95 1.46-9.99-0.32-7.11-4.31 2.83-5.2 4.98-1.3 3.15-2.02 6.96-3.58 10.08l-1.26-0.32c1.13-2.3 1.63-4.38 1.28-6.98-0.12-0.87-0.36-1.89-1.27-0.95l-3.82 14.6c-1.52 0.22-0.65-6.86-2.52-5.07-1.56 3.93 0.66 8.66-2.24 12.06-2.39-4.09 1.74-12.67 0.02-15.88-1.21-2.26-1.73 2.71-1.91 3.19-0.98 2.73-2.05 4.28-1.89 7.64l-2.23-0.04-0.65 4.46c-1.4 1.72-1.6-3.58-1.91-3.81-2.49 1.48-0.48 5.63-1.91 8.24l-1.87-4.14c-1.94-1.23-2.41 3.19-2.55 4.48-0.19 1.68 1 6.47-1.28 6.02v-18.73c0-10.7 14.76-27.27 23.29-33.21 18.32-12.78 55.89-25.31 77.12-16.41 5.38 2.26 9.99 6.31 15.77 7.39l-25.4-22.2c1.16-0.2 1.9 0.13 2.91 0.58 5.72 2.58 14.03 10.73 19.79 13.99 1.92 0.44 3.85 2.89 5.55 3.21 2.41 0.45-0.26-2.1-0.55-2.63-0.91-1.64-1.29-3.5-2.05-4.93-1.34-2.55-4.66-5.9-4.38-8.96l13.63 16.85c1.73 1.21 3.44 3.58 5.74 3.46 1.04-1-4.86-7.87-5.1-9.19-0.21-1.16 0.8-1.38 1.27-0.96 0.42 0.37 0.97 3.09 3.19 2.53 0.37-0.3-2.39-8.09-2.53-9.26-0.2-1.65 0.6-2.89 0.57-4.32-0.07-3.16-3.12-5.09-2.17-8 5.17 6.68 8.34 15.02 12.79 22.13 0.69 1.09 1.9 3.32 3.4 3.26l-4.48-16.78 0.67-2.26 2.55 6.98 1.28-2.17-5.09-20.04 2.95 3.37 0.86 3.61c3.19-0.88-1.54-7.32-0.64-8.25l3.81 2.53v-16.51l3.18 11.43c2.38 0.63 0.6-3.44 2.53-3.8l0.65 6.97c1.34 1.27 2.11-4.08 2.41-4.87 0.33-0.86 1.13-3.07 2.02-3.37-0.16 5.69-2.99 11.02-4.44 16.5 0.52 0.61 2.56-1.72 2.75-1.98 1.77-2.5 3.68-6.53 5.31-9.34 0.45-0.79-0.36-1.75 1.46-1.37-0.36 4.57-3.81 8.78-5.47 13.26-0.21 0.57-1.53 1.5 0.08 1.97 1.1 0.32 11.04-16.96 13.64-18.41 0.22 1.15-0.2 1.91-0.59 2.9-2.19 5.63-7.11 11.96-9.48 17.82-0.37 0.92-0.92 1.69-0.71 2.77l15.23-15.23c-0.87 2.31-2.77 4.81-4.25 6.82-1.94 2.62-6.65 7.22-7.81 10.01-0.11 0.29-0.16 1.04 0.31 0.94 3.62-2.39 5.89-5.87 9.21-8.58 0.5-0.41 1.25-1.67 1.9-0.63l-16.72 18.83c-1.9 4.15-4.03 8.57-3.59 13.23 1.35 0.29 1.45-0.68 2.02-1.47 4.79-6.66 8.85-13.73 14.46-19.81 9.9-10.72 29.97-24.7 45.23-20.43 11.27 3.15 8.04 11.89 5.26 20.75-0.76 2.41-5.48 11.38-4.48 12.75 0.29 0.41 8.15 1.6 9.89 2.18 15.56 5.25 26.19 20.37 27.29 36.51-2.77-1.52-2.82-5.53-4.2-8.18-0.75-1.43-7.47-11.93-8.17-12.15-0.31-0.1-1.6-0.2-1.6 0.34 1.54 5.76 5.11 11.18 4.45 17.45l-4.61-11.58-3-3.02 3.47 14.61c9.12 4.37 19.12 9.79 25.69 17.64 1.24 1.47 6.03 7.82 6.54 9.2 0.67 1.77-0.08 2.89 0.2 3.66 0.59 1.66 5.65 3.89 6.31 5.05 0.57 1 0.15 2.5 0.67 3.77 2.05 4.96 7.96 11.83 10.68 17.25 2.46 4.88 4.4 10.27 6.12 15.47-1.22-0.02-2.54-2.25-3.16-3.19-3.17-4.8-6.17-9.77-9.86-14.25-3.07-0.18 3.68 8.67 2.21 10.14l-8.57-13.32c-2.2-0.87 0.11 3.19 0.18 3.63 0.36 2.03 0.09 4.18 0.79 6.2l-1.29 0.01c-1.07-1.94-8.33-15.3-9.19-15.58-0.3-0.09-1.6-0.2-1.6 0.34 0.62 3.33 2.25 6.97 3.04 10.3 0.32 1.36 0 2.77 0.29 4.15 0.66 3.15 2.98 6.44 1.44 9.99l-6.22-24.25-2.98-4.31 3.18 32.37c-1.78-6.26-2.95-12.63-3.83-19.04-0.93-0.89-1.15 0.05-1.26 0.93-0.72 5.65 1.95 9.98 1.26 15.57l-0.95-0.62c-1.17-5.97-3.1-11.76-4.6-17.62-0.3-1.14-0.01-2.41-0.3-3.52-0.68-2.63-2.45-5.43-2.4-8.71-0.93-0.89-1.15 0.05-1.27 0.94-0.44 3.49 0.09 6.9 1.29 10.15l-0.64 6.68c-1.96-4.43-5.11-28.23-7.61-30.17-0.48-0.36-0.7-0.38-1.28-0.3-0.08 1.52 0.2 3.12-0.14 4.63-0.23 1-2.9 6.33-4.31 4.89 0.69-1.61 0.75-14.04-0.95-13.95-2.36 3.01-1.22 7.04-5.08 9.49-1.94-1.77-0.43-4.83-1.1-7.14l-2.09-6.8c-2.13-0.44-3.98 9.29-7.29 8.24v-11.74l-1.27-0.64c-1.37 1.26-1.49 3.36-3.8 2.87 0-1.89-2.72-8.84-4.14-9.53-1.35-0.65-2.72 7.1-3.81 7.61-1.91 0.44-1.75-4.31-3.16-5.06l-4.45 5.05c-1.6-1.22-0.82-3.34-0.96-5.07l-5.31 1.25-2.95-5.69-6.33 4.13c6.46 4.28 13.97 6.91 20.26 11.47 21.99 15.92 36.72 56.2 34.99 82.51-0.14 2.14-1.04 3.88-1.23 5.76-0.47 4.95 0.22 10.32-1.98 14.86l-3.16-1.27c-0.53 0.57 1.17 4.51-1.27 3.8l0.63-6.98-2.53 0.64c1.08-2.36-1.32-3.31-1.35-4.11-0.08-1.96 1.34-2.94 1.34-3.83-0.01-0.79-1.05-1.58-1.24-2.57-0.44-2.31 0.14-3.75 1.25-5.67-1.95-2.19-1.28 2.68-4.44 0.3 0.24 1.05-3.07 8.15-3.51 8.25-3.28 0.82-0.24-6.54-0.31-7.61-1.08-0.87-4.57 5.67-5.08 2.85 0.94-2.09 7.71-9.89 6.34-11.74l-3.49 3.17c-0.93 0.17-1.14-0.01-0.95-0.95 0.43-2.21 7.46-9.71 6.35-11.1-0.78-0.98-6.01 6.14-7.61 5.7 0.19-1.78 3.55-4.51 3.17-6.01-0.51-2.06-2.72 0.2-3.51 0.3-6.08 0.84 4.61-7.28 3.51-8.25-2.95-1.29-4.44 3.3-6.33 0.95l7.59-8.25c-0.67-1.53-3.24 0.52-4 1.06-1 0.71-4.42 4.96-4.87 2.13 2.18-2.96 4.85-6.03 6.68-9.2 0.48-0.83 1.28-1.25 0.93-2.56l-6.35 3.17c0-2.2 4.1-8.05 2.53-9.52-1.71-0.37-1.07 0.5-1.56 1.26-1.29 1.99-2.43 4.25-3.52 6.35l-1.26-0.32 1.91-6.02-5.08 1.27 5.06-10.48c-2.61-3.19-2.8 4.28-6.33 3.49l3.18-7.28c-2.35-2.74-1.63 1.32-3.81 0.93l0.62-4.43-1.9-0.01 1.27-5.07-4.76 3.15c-1.74-1.22 0.33-1.34 0.06-3.16-0.17-1.07-0.47-1.54-1.64-1.27l-2.22 5.08c-2.84-1.18 3.8-9.25-0.95-9.52-0.12 1.38-1.3 3.78-2.86 3.81l-0.33-5.09c-2.49-0.76-1.68 2.03-3.8 1.91 0.18-1.89 1.76-3.36-0.68-4.19l0.67-3.42-2.21 1.25-0.96-3.79c-2.58-0.62-0.7 3.73-3.17 3.17l-0.01-2.54-2.87 0.03-0.3-3.84h-1.9l0.01 1.45c-0.86 2.26-1.72-1.57-2.25-2.09-3.66-3.6-6.69-4.25-11.27-5.85-1.2-0.42-1.91-2.05-3.39-2.22-0.37-0.04-4.58 0.43-4.92 0.54-1.16 0.38-1.59 3.55-1.66 4.68-0.17 2.51 0.19 11.76 0.62 13.97 0.34 1.8 2.23 1.38 2.55 3.16 0.78 4.29-0.11 10.77 0.62 14.62 0.36 1.9 2.58 1.71 3.07 3.29 0.56 1.83-0.07 5.02 0.27 7.33 0.19 1.25 1.51 7.66 1.86 8.31 0.73 1.38 2.16 0.68 2.45 1.49l2.16 14.87c0.21 1.65 1.99 0.89 2.8 2.25 1.99 3.3 1.7 10.85 3.75 14.67 0.8 1.48 2.49 1.7 3 2.71 1.75 3.41 2.13 9.86 3.64 13.51 0.61 1.49 2.91 1.04 4.13 4.1 1.04 2.61 3.04 11.26 4.29 12.87 0.75 0.96 2.29 0.21 2.94 1.02 1.91 2.37 3.45 10.24 5.38 13.52 1.19 2.01 3.26 1.7 4.36 3.25 1.33 1.86 4.68 12.45 5.55 13.19 0.35 0.3 2.01 0.16 2.9 0.57 1.49 0.69 5.95 10.98 7.08 13.25 1.04 1.27 2.88 0.49 4.18 1.53 1.42 1.15 5.12 10.38 6.84 12.55l4.12 0.93c2.03 2.63 5.21 10.09 7.45 11.92 1.4 1.13 2.97 0.25 4.15 0.94 1.3 0.75 6.35 10.31 8.83 12.11 1.97 1.44 3.29 0.47 4.35 1.05 0.87 0.47 6 8.83 8.35 10.38 1.63 1.08 2.81 0.7 4.2 1.51 3.04 1.76 6.46 8.55 9.45 10.23 1.87 1.05 3.2 0.21 4.64 0.77 1.31 0.52 7.21 8.68 9.71 9.65 1.53 0.59 3.02 0.05 4.41 0.66 2.71 1.19 7.35 7.83 10.02 9.08 1.98 0.93 3.47-0.36 5.21 0.43 2.51 1.15 8.14 7.93 10.85 8.91 1.55 0.55 2.49-0.65 4.36-0.02 2.8 0.95 9.22 7.85 11.94 8.49 1.43 0.34 2.14-1.47 3.52-1.12 0.86 0.22 5.88 4.51 7.35 5.42 1.13 0.72 8.49 5.18 8.97 4.67l-0.28-3.2-9.85-23.17 1.24-1.56c1.85 4.88 4.41 10.32 6.9 15.01 0.28 0.53 2.35 5.12 3.26 4.03-0.7-2.48-0.95-5.17-1.54-7.65-3.2-13.44-7.55-28.73-9.72-42.35-0.19-1.23-0.95-3.87 1.1-3.32l13.64 59.69c1.81 2.73 5.28-4.14 6.67-5.43 4.77-4.43 11.41-6.67 17.79-5.37 0.04 0.92-2.29 0.96-3.04 1.08-4.91 0.8-7.81 1.31-11.88 4.63-2.06 1.67-9.9 11.16-5.08 12.06 12.9 0.3 25.86-0.39 38.75-0.03 4.14 0.12 11.88 2.3 15.22 0.03 1.93-1.31 8.67-10.85 10.66-13.5 1.7-2.26 5.65-9.21 6.95-10.46 1.26-1.21 2.8 0.07 4.3-1.05 3.14-2.35 5.09-9.64 8.22-12.21 1.42-1.16 2.2 0.27 3.5-0.86 1.95-1.69 5.86-12.12 7.57-13.41 1.16-0.88 2.56-0.13 3.61-0.99 2.05-1.68 4.47-10.61 6.35-12.54 1.22-1.25 2.15-0.78 3.08-1.37 2.34-1.49 4.57-10.68 6.36-13.32 0.95-1.41 2.71-1.32 3.77-2.57 2.23-2.68 3.74-11.39 5.46-13.6 0.71-0.92 2.47-0.32 3.19-1.25 1.8-2.33 2.79-11.46 4.88-14.16 1.06-1.37 2.36-0.95 3.21-2.51 1.81-3.32 1.98-9.96 3.76-13.38 0.71-1.37 2.18-0.73 2.93-2.14 1.88-3.52 2.04-10.52 3.42-14.36 0.44-1.26 2.4-1.23 2.92-2.8 1.27-3.83 1.17-10.4 2.16-13.71 0.43-1.46 2.46-1.5 2.94-2.78 1.4-3.8 1.49-10.86 2.09-15.04 0.31-1.11 1.8-0.77 2.3-1.19 1.72-1.44 0.26-11.63 0.94-14.62 0.47-2.09 2.68-2.79 3.02-4.59 0.76-3.97-0.88-10.87 0-14.47 0.18-0.7 1.53-0.74 1.97-1.33 2.03-2.7-0.58-12.77-0.08-16.47l2.6-1.47c0.35-4.89-2.02-10.35-1.33-15.17 0.29-2.08 1.48-2.19 1.81-3.27 1.35-4.45-2.07-10.4-1.83-14.48 0.1-1.79 1.29-2.28 1.68-3.45 1.18-3.6-2.69-11.35-2.27-15.58 0.14-1.44 1.94-1.91 1.82-3.07-0.07-0.63-0.93-1.39-1.04-2.16-1.03-6.77-1.87-8.98-1.42-15.76 0.1-1.51-1.11-3.59-0.62-5.37-4.53 0.39-9.1 1.48-12.39-2.53-1.52-0.37-1.02 2.05-0.97 2.87 0.17 2.62 1.6 4.63 1.29 7.28-1.99-0.37-2.74-6.34-3.49-6.34-1.76 0.85-0.49 4.51-1.02 5.04l-1.88 0.38c-0.52 2.62 1.11 9.94 0.35 11.09-0.47 0.72-1.69-0.03-1.65 2.19 0.04 2.19 1.66 3.25 1.34 5.41l-1.65-1.18-3.73-6.43c-2.13 1.48-0.06 2.88 0.17 4.27 0.12 0.74 1.24 8.14-0.49 7.15l-3.17-3.17 4.43 15.87-2.78-3.24c-0.45-1.75-1.3-3.31-2.14-4.87-0.42-0.79 0.45-1.78-1.42-1.41l2.53 12.07-3.49-3.81c-2.42-0.07 0.01 3.31 0.17 4.27 0.27 1.56 0.06 3.06 0.42 4.66 0.52 2.26 2.35 4.19 1.63 6.93l-2.79-3.24-1.64-3.1 0.94 12.06c-1.63-2.96-1.12-7.18-4.12-9.52v13.01c0 0.12-1.03 1.13-1.27 0.95-0.14-0.97-0.56-1.85-0.65-2.85-1.08-12.16 0.31-25.45 1.91-37.46 1.51-11.36 3.69-22.17 6.63-33.37 1.13-4.31 3.1-8.6 4.17-12.96l-1.26-0.96c0.27 2.2-2.19 0.63-3.52 1.89-1.88 1.78-1.88 9.84-2.28 12.95-0.18 1.4-0.98 2.59-1.15 3.93-0.4 3.37 1.63 9.32-2.58 9.15l-0.12-5.28-1.78-1.06-8.9 36.82c-2.72-1.9 0.12-7.36 0.6-9.87 0.28-1.43-0.02-3.08 0.31-4.78 0.66-3.38 2.77-5.33 0.99-9.47-3.01 2.72-1.9 9.4-4.43 12.06l-0.12-4.65-1.79-1.06c-1.13 5.03-2.33 11.12-5.4 15.23l1.58-15.24-2.53 2.35-5.72 16.06c-2.98 0.58 0.45-5.02-2.53-4.44 0.83 2.41-1.55 4.1-1.86 4.93-0.26 0.69-0.01 1.8-0.34 2.7-1.57 4.23-3.34 8.42-4.8 12.69-2.1 0.46-0.94-1.46-1.34-2.77-0.24-0.78-0.97-1.39-1.52-0.42-1.19 2.14 0.73 6.15-1.25 8.26-1.89-0.97 0.17-9.26-2.88-7.31-2.02 1.95-0.84 4.73-1.29 6.96-0.48 2.46-2.14 5.16-1.87 7.98l-2.53-3.18c-0.19 1.33-0.62 15.4-2.54 13.97 0.03-0.63-0.37-1.17-0.47-1.76-0.39-2.31 0.85-6.43-2.07-6.49-1.02 8.27-1.22 16.85-3.82 24.75-0.67 0.26-1.26-2.09-1.26-2.22v-11.43c0-0.26-0.99-1.38-1.6-0.32-2.17 3.73-1.97 11.79-4.44 15.88-0.85-1.21 0.46-8.32-1.27-8.24-2.05 2.43-3.63 5.22-5.64 7.68-0.55 0.66-0.02 1.59-1.65 1.19-1.23-1.59 7.23-14.36 6.98-16.17-0.09-0.62-0.79-1.12-1.61-0.33-0.36 0.35-5.34 7.65-5.36 4.13 0-0.16 1.32-2.03 1.57-2.86 15.36-50.21 42.69-87.56 81.31-122.49l0.91-2.9c-2.24-1.66-3.07 3-4.45 3.84-1.27 0.77-3.53-1.93-4.8 1.49l-2.17-0.58c0.41 3.45-2.84 3.52-3.5 4.45-0.57 0.79-0.06 2.49-1.27 3.16l-3.49-3.15c0.25 2.86-0.07 5.07-2.87 6.35-0.31 0.05-0.24-0.93-0.79-1.23-3.12-1.64-2.46 0.35-3.17 0.57-0.61 0.19-1.84-0.16-2.04 0.03-0.13 0.13 0.07 1.85-0.19 2.66-0.7 2.12-1.72 3.48-1.1 6.21-1.92 0.46-1.03-1.24-1.63-2.48-0.31-0.65-1.67-3.6-2.49-3.22-2.29 1.05 0.71 5.39-1.27 6.97l-3.18-6.97c-2.26 0.98 1.01 9.85-1.28 12.05-1.3 0.37-1.28-2.22-1.4-3.03-0.27-1.85 0.38-4.52-1.44-5.22-1.04 1.37 0.37 5.56-1.91 5.08 0.06-0.85-0.02-1.68-0.38-2.47-4.62-10.26-3.1 2.02-3.5 2.43l-1.83 0.05 0.33 3.8-3.51-1.9v9.52c-3.43-1.46-1.17-7.28-4.44-7.62-0.33 4.78 0.23 9.33 1.26 13.96-3.16 1.16-2.03-4.24-4.11-3.8-1.47 0.31-0.62 9.04-2.86 6.98-1.01-0.92-0.42-6.64-0.79-8.43-0.17-0.82-1.14-2.59-1.6-3.5-0.42-0.85 0.42-1.75-1.43-1.4v11.11c0 0.12-1.03 1.13-1.26 0.95-0.63-2.34-1.44-5.25-2.4-7.45-0.3-0.69-0.56-1.6-1.41-0.8-1.93 1.8 2.87 15.67 1.58 19.04-2.47-2.94-3.02-7.07-4.8-10.43-0.47-0.88-0.32-1.91-1.87-1.62l1.42 8.42c1.12 2.27 2.21 4.12 1.75 6.81-1.6 0.35-1.11-0.41-1.64-1.19-0.43-0.62-3.53-7.81-4.7-6.43-0.28 3.84 1.46 6.86 1.6 10.8 0.18 5-3.88-3.68-5.73-4.44-1.11-0.03-0.71 5.96-0.97 7.29-0.2 1.02 0.43 1.1-1.25 0.95l-1.91-12.06c-0.59-0.27-1.9 0.57-1.9 0.95v16.19c-2.49-1.57 0.18-7.21-3.8-7.61l-1.28 15.23c-1.81 0.33-1.04-0.45-1.43-1.4-0.76-1.86-1.07-6.99-2.07-7.48-1.38-0.67-0.84 2.68-1.9 3.79-0.87 0.91-2.87 1.27-4.12 1.28-0.94-0.94 3.74-9.25 3.83-11.1 0.07-1.49-0.65-0.98-1.86-0.91-0.56 1.06-0.11 2.94-1.97 2.48-0.83-3.04 3.63-5.85 0.95-8.23-0.87 0.03-4.26 8.55-6.35 8.87-0.49-2.02 2.91-4.61-0.95-5.07l-4.13 8.88-0.32-4.44-3.8 3.17c0.67-9.1-3.37-3-7.32-0.64-0.83 0.5-1.54 0.7-1.56-0.31-0.03-1.75 6.71-5.83 6.33-8.57-0.85-0.86-6.98 4.67-8.88 3.49 2.47-2.39 5.06-4.68 7.61-6.99 7.81-7.09 13-11.87 21.55-18.44 17.16-13.19 38.63-33.2 58.98-40.07 9.96-3.36 20.57-4.9 30.79-7.3 1.4-0.58 1.39-2.47 0.75-3.71-0.95-1.72-1.94 1.87-2.55 1.9l-2.2-4.77-3.19 0.97-0.01-3.18-1.88 0.01-3.19 6.35-0.01-5.72c-2.49-0.66-1.18 1.65-3.16 1.27-0.01-1.13 0.37-4.03-0.98-4.43-2.91-0.88-3.51 5.94-6.64 5.06l0.63-5.07c-2.37-0.04-2.7 2.9-4.44 3.81l-0.96-4.43-2.21 2.52c-0.35-1.16-0.18-2.99-1.91-2.54l-4.13 10.16c-1.98-0.79 0.48-5.54 0.8-6.81 0.47-1.86-0.31-3.59 1.42-5.24-4.17 0.59-4.21 6.03-7.3 8.24-1.65-1.05 2.38-7.8 0-7.6-1.14 0.09-3.76 6.68-5.08 7.6-0.65-1.43 0.26-4-2.21-3.8l-4.15 5.7-0.8-1.44 0.81-4.89-6.04 8.24-1.26-0.32 2.54-7.29c-0.49 0.02-1.11-0.12-1.53 0.05-1.05 0.43-5.31 7.26-6.1 8.83l-1.26-0.32c-0.31-2.59 2.16-5.12 2.85-7.32 0.36-1.13 0.34-1.08-0.63-1.87-1.04 0.1-9.29 13.83-11.73 14.59l5.71-14.28c-0.58-1.01-1.44 0.15-1.93 0.61-2.27 2.13-4.35 6.14-6.71 8.53-0.66 0.67-0.91 1.61-2.16 1.33l5.7-12.39-0.93-0.93-16.53 14.58-0.93-0.93 3.81-6.36c-0.46-2.7-1.4-0.04-1.98 0.53-3.3 3.26-6.39 6.76-9.78 9.94l1.28-5.07-8.26 8.25 0.01-3.8c-2.5 1.45-5.46 7.26-7.64 8.24-0.27 0.12-1.04 0.16-0.94-0.31 1.31-2.81 4.73-5.47 4.77-8.57-3.04 1.34-4.61 4.55-7.37 5.98-0.84 0.44-2.54-0.31-3.45 1.62l-2.51-1.89-3.83 4.44c-2.48-0.01 0.3-2.49 0.34-3.48l-1.27-0.31c0.22 1.53-1.21 1.02-1.94 1.69-1.81 1.68-3.33 4.65-6.01 5.91-0.41-1.47 2.1-4.21 3.27-5.64 16.82-20.29 53.74-32.75 79.32-36.21 20.59-2.78 32.9 3.43 51.88 7.17 1.48 0.29 3.79 2.77 4.25-0.86l-4.44-0.33c-0.32-1.36 1.59-1.12 2.51-1.92 0.4-0.35 1.42-2.11 1.3-2.2l-7.87 0.04-0.97-2.31-9.57 1.63c-0.45-3.27 4.49-2.68 4.44-6.34l-12.69 1.89c-0.36-3.47 4.98-2.99 5.71-6.34-4.33-0.1-8.02 1.88-12.06 2.53-1.65-1.63 4.62-4.3 5.6-4.88 0.78-0.45 1.76 0.37 1.38-1.46l-30.47 1.26c1.02-2.18 4.11-0.97 6.02-1.27 3.02-0.46 7.49-1.11 9.85-3.17h-28.89c-0.14 0-1.16-1.09-0.95-1.26 3.89-1.06 8.23-0.06 11.96-1.09 1.13-0.32 1.64 0.2 1.37-1.45-4.31-0.4-9.46 0.53-13.65 0zm135.55 438.7c0.16-3.47 0.19-7.65 0.7-11.05 0.43-2.9 3.37-12.23 3.12-14-0.11-0.84-3.9-5.89-4.76-7.98-1.46-3.54-5.76-21.83-8.37-22.74-2.7-0.94-18.42 3.79-22.07 5.03-8.39 2.83-17.31 6.88-24.67 11.19-0.63 0.36-2.95 0.23-2.98 1.14-0.04 1.01 1.58 0.88 2.49 0.6 4.28-1.32 8.85-3.45 13.33-4.45 9.29-2.08 18.18-1.55 27.67-1.57l6.65 2.56-17.45-0.63c-14.42 0.83-28.53 4.83-41.51 11.19-4.79 2.34-9.27 5.51-14.05 7.87-0.2 1.05 0.24 1.32 1.1 1.74 3.65 1.75 9.52 2.36 13.51 3.63 22.23 7.09 36.83 12.9 60.57 16.25 2.17 0.3 4.24 1.81 6.72 1.22zm-9.53-73.01c-29.18 1.04-52.98 14.35-69.34 38.26l-3.03 5.54 2.56-0.92c21.33-13.55 44.51-25.34 69.82-28.92-1.12-4.52-0.84-9.39-0.01-13.96zm-15.68-15.42c-3.35-4.18 0.07-8.73 0.45-12.83 0.38-4.03-1.09-8.14-0.57-12.63 0.53-4.52 2.94-7.68 5.02-11.51 0.01-1.09-6.95-7.97-7.62-7.29l1.93 4.09c-1.86 0.63-1.5 2.05-2.31 3.47-1.35 2.34-4.93 6.82-5.62 8.98-0.71 2.2-0.01 4.19-0.64 6.34-0.94 3.19-6.51 7.98-7.62 11.44-0.64 2.01-0.02 3.74-0.69 5.65-1.22 3.42-8.13 9.53-9.52 12.72-0.36 0.83 0.78 1.6 0.89 2.37 0.23 1.55-7.3 10.26-8.9 12.49-0.42 0.58-1.1 0.81-1.69 1.15l-0.12 4.94c0.94 0.21 1.18-0.03 1.85-0.45 4.31-2.71 8.3-5.68 12.94-7.93 12.34-5.96 24.83-7.63 38.41-8.25l2.04-7.49c-4.69 0.41-15.21-1.51-18.23-5.26zm-445.88-213.77l-1.9-0.01c0.79 2.32-0.96 2.43-1.26 3-0.66 1.25-5.46 9.89-5.08 10.34 0.52 0.62 2.83-2.03 3.16-2.41 2.57-2.94 4.67-7.06 5.08-10.92zm-1.9-7.63c2.56-0.01 3.59-3.46 1.59-5.06zm34.91-15.23c-0.2-0.18-3.95 1.07-4.57 1.33-0.98 0.44-0.39 2.03-3.59 0.62-2.51 5.9-3.41-0.67-4.22-0.67-1.02 0.85-0.98 2.17-1.86 3.21-1.07 1.26-2.84 1.42-3.8 2.54-0.82 0.94-4.11 8.81-3.54 9.47l19.43-13.58zm113.01-0.01l1.92-0.3 0.55-0.7-1.53-4.07c-2-0.03-0.5 3.98-0.94 5.07zm-124.44-17.78c-2.51-0.55-1.8 1.09-2.88 2.52-0.94 1.26-2.61 1.85-2.2 3.83l4.8-0.59zm-10.16-0.63c-2.73-0.75-1.78 2.77-4.12 3.81-1.35-6.96-5.13 4.68-4.12 5.71 2.56-0.69 9.05-0.8 10.53-2.48 0.84-0.96 2.39-5.38 0.56-5.77-1.27-0.26-3.2 4.64-3.48 5.71-3.05-0.78 1.44-6.21 0.63-6.98zm121.92 12.06c-3.01-5.64-8.07-10.44-13.34-13.96 0.21 3.92 5.13 6.08 5.07 10.15l-6.98-5.71c0.07 3.23 4.61 4.71 3.49 7.61-1.41-0.44-3.98-3.88-4.76-3.49-1.19 0.59 0.1 1.47 0.4 2.15 0.34 0.76 1.3 2.96 1.76 3.31 1.6 1.23 7.78 1.04 10.05 1.38 3.58 0.52 2.9 0.84 6.51 0.71 1.21-0.04 9.76 5.94 7.98 0.68-1.47-4.3-3.96-7.36-5.76-11.08-1.47-0.26-1.51 0.28-1.23 1.56 0.45 2.15 3.29 4.34 2.2 6.69-0.69-0.9-7.68-10.64-8.57-9.52l4.44 9.2zm333.3-22.85c-3 0.15-2.26 2.99-6.34 1.27l1.27 15.24 2.73-0.77zm-377.76-1.27c-1.66-2.04-2.94 7.97-3.16 8.88l3.72-2.33zm26.67-17.78c-2.97 0.34-3.53 5.05-6.97 3.17l-0.96 2.53-2.22-1.25c0.74 3.22-2.42 4.52-2.55 7.61-1.5-0.42-0.15-5.25-0.63-5.71l-1.96 0.37-2.8 7.88c-0.53-0.88-0.1-7.25-1.93-5.1-1.33 1.57-4.77 11.84-3.8 13.37 0.89 1.38 5.33-1.84 6.56-2.35 7.32-3.04 15.18-5.51 23-6.84l1.24-4.15-2.53 0.64c0.12-4.26-4.56-6.39-4.45-10.17zm339.51-5.57c-0.15-0.24-2.52-2.35-3.01-3.32l1.3 7.59 1.86 0.04c-0.18-1.22 0.41-3.36-0.15-4.31zm43.24-43.86c-10.22-5.65-22.88-1.37-31.33 5.64-0.62 0.52-5.5 5.67-4.77 6.33 11.72-3.02 23.09-8.26 35.14-9.62l0.76-0.5zm-85.61-12.15c2.16-5.68-0.56-11.33-1.28-17.14-1.35 1.33-2.86 1.05-4.4 1.63-0.49 0.18-0.96 1.04-1.79 1.38-1.15 0.49-2.78 0.02-3.95 1.13-0.26 0.24-2.35 4.15-2.45 4.58-0.86 3.95 6.02 6.97 8.79 9.37 2.32 2 4.76 4.22 6.96 6.35 0.92 0.89 1.57 3.66 2.69 1.42 0.62-1.22 1.65-3.89 1.79-5.22 0.43-4.17-2.99 1.47-4.46 0.31l2.53-7.61zm79.99 436.79c-1.3-1.98-1.79-4.99-3.8-6.34l-0.38 5.74z"/>
	<path id="Path 2" fill-rule="evenodd" class="s0" d="m436.85 700.65c2.84 3.05 9.65 8.67 11.53 11.58 0.44 0.68 0.69 1.12 0.52 1.97l-15.01 0.83-16.65-17.77-6.79 1.14 1.48 18.62-12.62 0.82-2.7-50.93c5.84-0.45 11.8-1.31 17.66-1.55 7.56-0.3 17.88-1.23 22.64 6 3.63 5.5 2.17 14.25-2.46 18.65-1.26 1.2-3.44 1.65-3.95 3.31 0 0.51 5.44 6.34 6.35 7.33zm-25.38-26.4c-0.72 0.13-2.39 0.54-2.57 1.3l1.56 13.36c1.7 1.18 10.5-0.84 12.47-2.08 4.19-2.64 4.67-9.15 0.34-11.85-2.03-1.26-9.3-1.16-11.8-0.73z"/>
	<path id="Path 3" fill-rule="evenodd" class="s0" d="m251.26 659.09l-0.8 2.26-21.51 18.63 15.63 30.32-14.79-2.75-11.35-21.33c-1.55-2.35-4.8 1.31-5.34 2.91-0.95 2.8-1.89 15.01-3.03 15.91l-12.01-3.05c-1.01-1.44 1.45-8.39 1.83-10.49 1.24-6.92 2.56-13.72 3.88-20.61 0.59-3.04 2.09-17.62 4.04-18.81 1.91 0.92 10.58 1.36 11.11 2.91l-3.6 20.23 0.6 1.68c1.46 0.29 18.77-17.09 21.44-19.23z"/>
	<path id="Path 4" fill-rule="evenodd" class="s0" d="m404.9 1.71c17.44-0.14 25.95 12.21 22.15 28.83-5.27 23.02-41.13 21.29-43.2-3.63-1.17-14.12 6.26-25.08 21.05-25.2zm0.01 8.32c-11.93 1.18-13.57 23.6-3.33 27.55 17.28 6.66 21.75-29.37 3.33-27.55z"/>
	<path id="Path 5" fill-rule="evenodd" class="s0" d="m269.47 674.92c12.37-1.69 25.51 4.84 26.12 18.5 0.79 17.94-12.83 25.77-29.3 21.06-8.73-2.49-14.21-9.13-13.91-18.37 0.36-10.93 5.7-19.63 17.09-21.19zm11.68 11.06c-5.14-6.29-13.69-1.99-15.69 4.84-2.6 8.9 0.61 18.75 11.57 16.03 6.75-1.68 7.9-16.24 4.12-20.87z"/>
	<path id="Path 6" fill-rule="evenodd" class="s0" d="m455.84 693.28c4.57-5.05 15.01-6.41 21.41-8.07 0.8-8.31-10.29-7-15.67-5.38-1.68 0.51-6.77 3.54-7.89 2.69l-0.85-7.23c9.13-3.42 30.55-9.33 35.31 2.73 1.8 4.56 2.31 12.5 3.14 17.47 0.62 3.71 1.67 7.38 2.12 11.13l-0.51 0.63c-1.46 0.2-2.91 0.98-4.31 1.26-1.17 0.22-6.62 0.87-7.12 0.14l-1.1-2.78c-6.09 6.49-19.01 10.56-25.33 2.49-3.87-4.93-3.19-10.67 0.8-15.08zm20.77-1.8c-3.54 0.48-11.87 3.07-12.03 7.38-0.33 8.51 11.12 6.83 14.64 2.51 1.35-1.66 0.37-7.1-0.36-9.05-0.45-1.2-1.17-0.99-2.25-0.84z"/>
	<path id="Path 7" fill-rule="evenodd" class="s0" d="m219.63 15.48l-11.07 23 19.43 16.24 1.66 2.51-12.4 2.13-14.67-12.62-1.87-0.63c-3.21 5.76 1.62 11.58 1.17 17.46l-9.47 1.96-10.01-41.07 10.49-2.29 4.19 17.8 11.09-21.76z"/>
	<path id="Path 8" fill-rule="evenodd" class="s0" d="m339.22 691.93c-0.77 0.53-6.63-3.74-8.32-4.19-8.09-2.17-15.15 1.94-15.63 10.58-0.81 14.46 13.72 16.16 23.11 8.64 2.26 2.78-0.43 6.54 0.81 9.68-0.18 0.63-4.97 2.24-5.94 2.44-8.37 1.73-21.82-0.27-27.11-7.69-7.09-9.96-2.41-27.53 9.69-31.44 5.45-1.77 16.62-1.59 21.76 1.1 3.72 1.94 2.15 7.3 1.63 10.88z"/>
	<path id="Path 9" fill-rule="evenodd" class="s0" d="m518.87 714.57c-2.43 2.2-7.58 3.99-10.81 4.5-0.86 0.14-6.65 0.64-7.03 0.58-1.7-0.31-2.36-6.5-2.34-8.25 1.47-1.29 3.29-0.03 4.92-0.11 4.42-0.23 5.98-3.41 6.43-7.38l-5.71-29.26c-1.77-1.95-6.43 1.17-7.41-0.11-0.51-0.66-1.65-6.24-0.72-6.85 3.11 0.04 16.53-4.64 18.14-2.49l8.08 36.46c0.38 5.38 0.74 9.01-3.55 12.91z"/>
	<path id="Path 10" fill-rule="evenodd" class="s0" d="m259.53 23.46c7.63 7.09 6.97 22.54-2.58 27.95-14.99 8.49-30.83-3.56-26.82-20.15 2.74-11.35 21.4-15.23 29.4-7.8zm-18.02 5.55c-4.6 5.07 0.51 22.56 10.04 16.44 5.79-3.72 2.66-17.33-3.29-18.25-1.92-0.3-5.42 0.34-6.75 1.81z"/>
	<path id="Path 11" fill-rule="evenodd" class="s0" d="m356.03 43.04c-0.33 1.36-7.89 0.19-9.46 0.84l-0.83-3.33c-5.72 5.65-16.52 6.68-20.26-1.48-5.17-11.27 6.89-14.56 15.25-15.79 1.64-0.24 5.13 0.85 5.31-1.4 0.55-6.9-14.94-5.02-18.69-2.53-1.12-0.09-1.27-6.19-0.28-6.95 7.09-1.99 24.54-4.12 27.97 4.35 0.18 0.43 0.99 3.27 0.99 3.46zm-10.83-14.61c-3.35 0.69-9.3 0.16-10.63 4.28-2.46 7.65 10.66 6.66 11.45 2.54 0.2-1.05 0.32-6.62-0.82-6.82z"/>
	<path id="Path 12" fill-rule="evenodd" class="s0" d="m437.32 23.83l0.81-6.15c0.59-0.84 8.96-0.66 10.6-0.52 5.21 0.43 15.98 3.01 16.95 9.21 0.4 2.61-2.75 25.39-3.82 26.17l-8.97-1.14-0.81-3.06c-7.84 4.97-20.39 2.29-19.82-8.66 0.54-10.24 12.61-9.17 19.84-9.19 1.58-0.01 3.1 1.3 3.94-0.8-1.07-8.32-12.7-5.98-18.72-5.86zm5.71 19.9c1.56 1.67 8.07 1.73 9.85 0.39 1.05-0.79 2.13-6.59 1.46-7.52-2.54-0.84-8.43-1.1-10.55 0.66-1.51 1.24-2.09 5.04-0.76 6.47z"/>
	<path id="Path 13" fill-rule="evenodd" class="s0" d="m511.37 38.31c-0.05-1.57 0.48-6.62 2.45-6.65 7.52 0.72 24.16 3.21 25.28 12.64 0.7 5.89-6.18 19.42-7.47 25.78-2.9-1.38-10.31-1.22-8.01-5.6-5.08 0.98-8.73 2.26-13.76 0.1-5.07-2.17-6.95-7.23-5.45-12.35 2.97-10.11 16.63-6 24.16-5.08 1.71-4.14-1.53-6.08-4.96-7.45-0.64-0.25-3.89-1.39-4.17-1.39zm15.59 14.48c-4.66-1.81-15.1-2.67-12.7 5.18 0.8 2.62 7.32 3.16 9.53 2.5 1.97-0.59 2.36-5.86 3.17-7.68z"/>
	<path id="Path 14" fill-rule="evenodd" class="s0" d="m504.12 28.85c0.03 2.27-0.38 4.96-1.91 6.7l-19.23 13.34 0.32 1.1 15.22 3.39-1.6 6.97-28.2-6.44 1.42-5.89 19.51-14.45-15.59-3.62 1.18-6.61z"/>
	<path id="Path 15" fill-rule="evenodd" class="s0" d="m298.61 15.55l0.63 8.28c-2.84-0.09-5.09-2.36-8.11-2.74-9.51-1.17-13.38 8.09-9.16 15.84 2.65 4.87 9.93 4.52 14.12 1.84 1.52-0.97 2.23-2.98 4.26-2.69 0.99 6.86 2.08 9.2-5.31 11.1-15.17 3.9-27.23-4.29-24.61-20.71 1.8-11.28 19.08-15.33 28.18-10.92z"/>
	<path id="Path 16" fill-rule="evenodd" class="s0" d="m348.97 719.21c-2.18-0.61-0.78-3.39-0.79-4.73-0.06-10.73-0.27-21.62 0-32.25 0.01-0.5 0.37-1.94 0.87-2.04 3.46 0.55 7.24 0.49 10.77 0.05l0.59 37.59-0.86 1.38c-2.81-0.5-8.15 0.69-10.58 0z"/>
	<path id="Path 17" fill-rule="evenodd" class="s0" d="m315.36 12.72l2.2 31.35c-0.58 1.78-7.14 0.38-9.06 1.43l-0.9-1.35-2.23-30.9z"/>
	<path id="Path 18" fill-rule="evenodd" class="s0" d="m499.67 651.94c0.33-0.54 9.92-2.48 10.66-2.26 1.66 0.51 1.89 5.72 2 7.38l-10.76 3.07c-1.15-0.29-2.46-7.28-1.9-8.19z"/>
	<path id="Path 19" fill-rule="evenodd" class="s0" d="m348.22 673.48c0.18-3.32-1.69-8.13 2.99-8.31 0.98-0.03 4.06-0.01 4.99 0.05 5.93 0.38 4.5 3.94 3.65 8.66z"/>
	<path id="Path 20" fill-rule="evenodd" class="s0" d="m304.33 7.6l-0.05-6.57c3.08-0.43 6.23-0.75 9.33-1.02 2.88-0.26 1.93 5.61 1.26 7.43-1.66 0-9.97 1.05-10.54 0.16z"/>
	<path id="Path 36" fill-rule="evenodd" class="s1" d="m94.52 265.04l1.59-5.06c1.99 1.6 0.97 5.05-1.59 5.06z"/>
	<path id="Path 1 copy" fill-rule="evenodd" class="s0" d="m430.58 136.17c-0.5-0.07-1.34-0.92-2.22-0.65-0.89-0.82 4.16-1.74 4.84-1.81 7.2-0.79 14.26-0.24 21.4-0.32 0.6-0.01 4.03-0.05 3.59-1.34-5.22-2.73-11.15-2.19-16.77-2.92-1.36-0.17-2.54-1-3.91-1.17-2.78-0.33-6.27 0.83-8.51-1 2.9-0.41 6.22-0.57 9.15-0.27 1.33 0.14 2.53 0.98 3.92 1.16 3.76 0.49 8.13 0.1 11.36 1.98 2.55 0.33-0.9-2.88-1.41-3.21-3.91-2.49-10.55-4.45-14.77-6.97-0.42-1.73 0.92-1.42 2.23-1.27 2.45 0.26 6.42 3.69 7.29 0.33l-14.6-9.22c-0.08-1.24 1.23-0.51 1.86-0.27 2.34 0.93 5.07 3.32 6.86 3.94 0.78 0.27 2.39 0.7 2.07-0.79-5.89-4.45-10.98-9.72-16.45-14.67-0.7-0.64-1.59-0.94-1.32-2.16 1.04-0.95 11.19 7.26 12.86 8.39 8.74 5.92 14.85 9.33 24.32 13.78 2.1 0.98 4.12 4.29 5.38 4.83 1.15 0.5 2.05-0.3 2.74-0.14 7.17 1.71 13.71 6.73 20.39 9.33 0.83-3.23 2.19-6.28 3.33-9.4 2.06-5.69 3.94-11.63 7.05-17.06 1.43-2.5 5.89-10.36 9-8.8 4.54 2.26 14.88 40.51 16.83 47.3l1.58 0.65c0.66-4.53-1.58-8.98 0.01-13.33l0.95 0.62 2.86 19.69c2.02 0.38 2.5-0.8 2.89-2.49 2.56-11.03 4.64-22.18 6.77-33.23l2.39-6.81-4.44 50.78c1.66 0.08 2.62-3.2 3.29-4.64 2.53-5.49 4.92-11.21 6.87-16.94 1.85-0.53 1.44 1.61 1.22 2.81-0.91 5.13-3.17 11.28-4.23 16.72-0.09 0.45-0.67 2.66 0.47 1.75l22.23-37.15c2.04-0.37 1.25 1.16 0.77 2.37-2.28 5.69-8.3 13.32-11.35 19.12-0.46 0.87-1.14 1.45-0.86 2.63 1.12 0.23 1.57-0.57 2.23-1.26 4.45-4.57 8.73-11.87 13-16.84l1.29 0.65-13.34 22.86 0.94 0.93 13.07-11.04c12.78-8.86 24.72-20.03 39.18-26.22 2.96-1.27 5.7-2.59 9.02-2.72 0.29 1.35-0.69 1.44-1.47 2.01-5.32 3.84-12.61 6.34-17.57 11.01-0.3 1.52 1.22 1.04 2.05 0.77 1.73-0.55 3.75-2.15 5.45-2.8 3.07-1.19 6.36-1.9 9.32-3.37l-0.62 1.91-25.04 12.42-2.59 2.18 5.23-0.17c5.49-1.86 11.56-3.67 17.35-4.88 0.59-0.13 2.36-0.48 2.17 0.59-5.66 2.56-11.79 3.65-17.66 5.51-0.91 0.29-1.62 0.99-2.51 1.3-1.6 0.55-3.86-0.28-4.58 2.08l29.83-3.17c0.33 1.9-0.5 1.01-1.48 1.34-5.48 1.84-11.23 2.72-16.92 3.75-0.17 1.69-0.01 1.02 0.95 1.25 2.9 0.69 5.88 0.67 8.85 0.68l4.16 1.86-16.79-1.29c-1.16 0.48-4.02-0.03-3.52 1.92 3.43 0.06 7.63 3.26 10.51 3.79 2.66 0.48 4.67-0.68 6.92-0.63 15.94 0.41 32 10.75 43.52 21.29 0.47 0.43 6.04 6 2.86 4.76-1.98-0.77-5.24-4.98-7.95-4.11l7.62 10.16c0.39 1.92-2.21-0.06-1.91 1.9 0.29 1.95 3.47 4.24 3.18 6.66l-7.94-8.25c-2.21-0.14 0.2 2.19 0.26 3.47 0.03 0.47-0.4 1.93-0.88 2.24l-8.27-10.15c-1.52-0.3-1.03 1.21-0.77 2.04 0.77 2.48 3.97 5.37 4.29 7.15 0.21 1.22-0.31 1.05-1.27 0.95l-15.57-18.39c-1.45 1.12-0.69 0.93-0.07 1.96 1.83 3.05 4.24 6.04 5.46 9.46l-8.57-10.79c-1.29-0.28-1.12 0.64-0.91 1.54 0.43 1.89 5.1 9.65 4.4 10.51-0.93 1.15-1.4-0.89-1.63-1.19-2.78-3.75-5.16-7.75-7.9-11.49l-1.27 0.31 4.45 9.2-6.34-6.98c-0.16 2.42 2.1 4.63 2.91 6.95l-1 1.3-4.76-7.61c-1.94 0.86 0.29 4.74-0.33 6.35h-1.9l-1.27-2.54 1.26 7.61-4.12-6.97-0.96 3.16-3.17-6.35-1.29 0.37-0.62 5.98c-1.71-0.25-0.26-3.82-2.52-3.17-1.66 5.39 0.01 3.93 2.3 5.95 13.13 11.61 30.09 20.67 37.78 37.45 0.9 1.96 2.17 3.85 1.81 6.12-4.11-4.56-6.47-10.58-11.75-13.96l-1.89 1.89-4.46-6.97-1.9 2.52-11.43-12.68c-2.86 0.44 0.15 2.81 0.26 3.04 0.36 0.72 2.81 5.6 2.6 5.84-3.24-0.31-3.01-6.32-5.72-4.75-0.21 1.13 0.67 1.94 0.96 2.85 0.15 0.46 0.91 2.46-0.32 1.59l-5.09-9.84-1.89-0.01c-1.5 1.47 3.75 8.24 0.64 9.53l-4.78-8.89-0.94 3.49-1.25 0.31c-1.52-3-3.78-4.28-3.86-8.23l-1.87-0.02c-0.47 2.48-0.94 4.77-1.28 7.3-0.11 0.86-0.33 1.97-1.25 0.96l-2.22-7.63c-1.37-1.58-1.08 1.39-2.23 1.28l-0.64-3.17-2.53 1.26-2.56-5.07-1.27 0.32c-0.26 0.67 2.28 5.48 0.33 5.38-2.11-0.12-1.42-6.5-4.76-5.7l-0.53 3.69c13.54 10.55 26.36 23.5 36.98 36.99 19.44 24.71 28.15 39.24 19.89 71.85l-2.38 5.55v-18.09c0-0.16-0.53-2.44-0.66-3.16-0.19-1.03 0.44-1.11-1.24-0.96l-1.26 10.78-3.19-17.77c-2.56-0.3-1.73 3.08-3.16 3.8-1.43-3.67 0.49-8.21-1.6-11.41-1.46 5.54-1.01 11.5-2.86 17.13-1.06 0.17-0.68-1.54-0.66-2.24 0.08-2.49 1.95-12.52-0.3-13.62-1.21-0.59-1.03 1.26-1.23 1.91-0.81 2.66-1.52 5.23-2.25 7.92-0.24 0.87 0.03 1.97-1.26 2.22 0.19-3.42-0.28-7.1-0.03-10.5 0.31-4.14 3.12-10.39 0.03-13.62l-2.55 15.87c-0.77 1.04-1.15-0.01-1.27-0.94-0.74-5.8 1.11-11.81 0-17.47-1.66-0.19-1.01 0.02-1.29 0.93-0.66 2.14-0.68 4.46-0.62 6.69-0.41 0.04-1.26-0.85-1.26-0.96v-11.11c-1.44-0.35-1.5 0.57-1.73 1.74-0.83 4.2-0.09 7.6-1.64 12.37-0.21 0.66-0.16 1.91-1.07 1.76l0.96-28.57c-2.2-1.5-1.4 2.87-1.73 4-0.39 1.33-1.63 2.21-1.79 3.62l-2.52-2.54c-0.38 2.07-0.38 4.52-0.81 6.51-0.13 0.61-0.23 1.9-1.1 1.75-0.93-6.52 1.65-12.08 1.26-18.41-2.22 1.01-0.83 3.99-1.39 5.9-0.25 0.83-1.43 1.56-1.91 2.53-0.84 1.7-0.9 4.06-3.03 4.9-1.28-6.39 0.22-13.39-2.53-19.43l-2.55 0.38c-0.63-0.7 2.7-8.4-1.27-8.25l-2.56 10.79-1.58-6.97c-1.75 2.19-0.59 5.53-3.48 6.97 0-4.5 2.38-8.57 0.7-13.08-0.33-0.88 0.2-1.08-1.34-0.88l-0.79 7.14-2.38 6.82c-0.89-4.86 1.65-9 1.3-13.68-0.09-1.11 0.11-2.45-1.3-2.82-0.74 3.22-1.31 7.07-2.19 10.2-2.77 9.89-6.89 19.14-4.79 30.1 0.36 1.89 2.22 1.89 2.56 4.42 0.47 3.54-1.04 12.6-0.57 14.52 0.24 0.99 1.73 1.52 2.12 2.35 1.79 3.86-1.13 12.7-0.9 16.86 0.07 1.26 1.56 1.67 1.85 3.14 0.61 3.06-0.13 9.98-0.67 13.27-0.17 0.98-1.17 1.74-1.12 2.49 0.1 1.41 2.3 2.47 2.44 3.92 0.39 4.11-2.53 10.36-2.58 14-0.04 2.63 1.95 3.32 1.9 5.59l-3.73 14.73c0 1.2 1.47 1.67 1.76 2.63 0.58 1.89-3.54 13.01-4.35 15.78 2.83 6.02-1.35 13.42-3.73 19.14l1.73 4.14c-0.9 3.48-5.99 11.96-6.12 14.88-0.04 0.86 1.01 1.53 1.16 2.48 0.49 3.07-5.46 11.46-6.24 14.73-0.48 2.01 1.27 2.53 1.06 4.1-0.2 1.55-5.63 9.38-4.99 10 6.51 0.64 12.97 2.18 19.43 3.11 9.45 1.37 16.77 0.04 25.22 6.53 4.85 3.73 11.01 16.95 12.58 22.97 0.84 3.23 0.74 8.9 1.66 11.04 0.82 1.92 10.76 12.84 12.69 13.34 1.79 0.46 3.68-0.09 5.48 0.23 18.04 3.23 26.24 17.26 33.74 32.29 8.48 17 10.09 35.76 9.82 54.62 4.73-0.28 10.03 3.48 13.79 6.2 3.98 2.87 6.79 5.44 9.49 9.59 7.19-1.52 16.54-2.36 17.83-11.2 1.03-7.12-1.22-14.12-0.79-21.1 2.45 2.47 7.11 5.34 8.7 8.44 2.48 4.84 1.83 15.58 1.07 21.01-1.06 7.63-8.09 16.1-16.12 16.89-9.22 0.9-19.49-0.15-28.56 0.65-7.36 0.64-16.52 3.86-24.18 5.02-21.34 3.22-43.12 4-64.74 5.1-111.79 5.69-223.97 1.81-335.85-1.22-17.35-0.47-35.4 0.13-52.66-1.3-18.94-1.57-6.28-11.47 2.01-17.03 23.2-15.56 60.75-29.77 87.47-38.86 11.26-3.83 23.06-6.53 33.98-11.08l-13.98-6.96c-0.98-0.99-0.22-2.68-1.23-3.85-2.25-2.58-12.73-5.94-14.96-8.53-1.33-1.54-0.55-3.03-1.55-4.17-1.76-2.01-9.93-5.14-12.74-8.2-1.38-1.5-1.06-2.85-2.13-4.22-2.23-2.85-10.43-6.35-12.5-9.12-0.95-1.26 0.12-2.18-0.52-3.23-2.05-3.36-11.14-7.78-12.79-10.73-0.88-1.58-0.28-3.07-0.91-4.16-1.04-1.8-8.82-6.97-10.81-9.52-2.12-2.72-0.62-3.78-1.52-5.26-1.46-2.38-11.18-8.93-11.79-11.81-0.2-0.95 0.62-1.89 0.01-3.23-0.87-1.92-8.24-7.83-10.16-10.86-1.35-2.14-0.2-2.42-0.46-3.94-0.41-2.36-10.4-11.62-10.48-13.53-0.04-1.17 0.73-2.24 0.35-3.62-0.47-1.72-8.12-9.19-9.08-11.91-0.67-1.88-0.02-3.57-0.48-5.24-0.76-2.73-7.69-9.74-8.48-13.12-0.32-1.36 0.67-2.54 0.09-4.49-0.9-3-7.16-10.05-7.9-13.15-0.34-1.42 1.45-2.07 1.09-3.47-1.33-3.16-8.12-13.12-7.4-15.88 0.17-0.64 1.14-1.16 1.04-1.95-0.39-2.91-5.86-10.66-6.64-14.39-0.44-2.13 1.01-2.68 0.78-4.48-0.49-3.72-4.85-9.97-5.45-13.69-0.38-2.41 1.23-3.69 1.12-4.91-0.25-2.86-3.75-8.62-4.26-12.21-0.57-3.94 1.23-8.24-0.68-12.35-1.88-1.35-2.43 5.54-2.53 6.68-1.06 11.58-1.49 25.07-1.94 36.78-0.31 8.16 0.69 14.65 1.25 22.3 1.1 15.17-0.36 29.86-0.59 45.04l-0.63 2.21c-0.58-11.34 0.75-23.37 0.02-34.63-0.24-3.79-1.63-7.91-1.92-11.4-1.49-18.11 0.66-40.52 1.24-59.07 0.07-2.42 2.42-8.05-1.24-8.54-0.84 8.17 1.1 18.47 0.03 26.38-0.28 2.09-1.67 2.32-1.94 3.78-0.7 3.77-1.11 11.16-1.3 15.2-0.3 6.58 0.83 14.75 0.03 20.99-0.11 0.88-0.48 2-1.27 0.95-0.44-10.81-1.48-23.22-0.66-34 1.24-16.32 6.1-21.02 2.07-39.48-0.34-1.56-0.13-5.97-0.91-7.02-0.45-0.62-3.69-0.78-4.97-2.33-5.33-6.5 1.7-13.25 7.33-16.21l0.94-7.63c-0.94 0.44-1.99 0.6-2.81 1.31-3.08 2.64-6.59 10.1-9.53 12.09-1.5 1.03-2.38-0.2-3.51 0.24-2.24 0.86-1.56 3.37-2.08 4.93-1.68 5-3.57 10.52-4.77 15.54-0.67 2.79 0.31 7.05-2.68 9.07l-0.12-7.83-1.79-1.06c-0.58 3.2-1.2 6.52-2.09 9.66-2.24 7.91-4.66 15.72-6.13 23.7-0.56 3 0.44 7.64-2.57 9.81-0.36-0.5 1.08-8.33 1.26-9.85 0.56-4.85 0.67-10.4 1.31-15.2 0.21-1.63 2.51-4.24 0.92-6.69-1.56 1.18-0.64 3.14-1.08 4.63-0.76 2.52-1.11 3.52-1.82 6.44-0.59 2.45-2.36 4.55-1.87 7.33l-1.19-6.1-1.34-0.88-3.82 17.78c-1.96-1.06-1.4-5.29-1.25-7.29 0.28-4.08 2.73-8.6 0.94-12.39-2.6 5.61-4.19 11.63-5.88 17.61-0.32 1.13 0.03 2.47-0.28 3.53-0.5 1.66-2.27 2.76-1.78 4.89l-2.53-3.18-3.19 22.22c-2.56 0.32-1.71-3.08-3.16-3.8l0.63 12.05c-1.82 0.35-1.02-0.49-1.44-1.38-1.52-3.28-0.6-5.68-1.66-8.52-1.02-2.71-1.87 0.69-1.98 1.97-0.48 5.29 1.18 12.2 0.68 16.54-0.24 2.06-1.5 2.2-1.82 3.27-1.22 4.04 2.11 10.39 1.77 14.79-1.89 0.33-1-0.5-1.33-1.49-1.15-3.38-2.02-6.36-2.48-9.93-0.93-0.89-1.15 0.05-1.27 0.94-0.15 1.25-0.17 3.87-0.03 5.12 0.65 5.6 2.07 13.41 3.25 18.97 0.65 3.08 2.51 6.48 2.49 9.88l-2.05-2.07-5.41-14.9-1.41-0.8c-1.5 3.73 0.6 6.46 1.21 9.89 0.27 1.53-0.11 3.21 0.2 4.88 0.52 2.82 2.52 5.45 1.75 8.71l-2.8-4.48c-0.53-2.21-0.56-4.23-2.59-5.66-1.17 0.77-0.89 1.68-0.98 2.82-0.3 3.69-0.62 7.43-0.61 11.14-0.87 1.17-1.83-5.84-1.9-6.68-0.45-5.81-0.28-12.21-0.64-18.08-3.69 0.38-0.64 6-2.85 8.25-1.48-2.34-2.01-6.43-2.22-9.21-2.41-32.28 3.1-63.83 18.08-92.38 2.42-4.61 5.9-8.95 8.05-13.53 1.73-3.66 2.41-8.16 4.88-11.65l-0.86-1.46c-4.37 5.34-6.35 12.19-9.21 18.39-1.21-0.34-1.17-0.85-1.02-1.91 0.67-4.59 5.84-14.77 8.41-18.95 1.74-2.82 7.19-8.32 7.24-11.18 0.01-0.62-0.4-3.94-1.29-4.14l-1.91 5.72-2.88-0.04c0.6 5.25-3.83 3.62-4.14 8.26h-1.83l-1.62-4.41c-2 1.87-0.67 4.75-0.33 6.97-2.96-1.33-0.87-5.03-2.86-6.97l-1.89 7.61-0.96-6.35-0.96 0.62c-0.7 4.57-1.49 9.1-2.2 13.67-0.15 0.95-0.05 1.97-1.28 2.22v-9.84l-1.27-0.65c-1.32 3.97-2.55 8.13-3.66 12.22-0.82 3.05-0.86 8.04-3.32 10.33-1.07-4.69 2.84-9.31 0.95-13.33-1.35 2.89-2.97 5.67-3.16 8.89l-4.13 10.79c0.14-2.15-0.27-4.52 0.02-6.63 0.4-2.86 1.49-6.74 2.03-10.04 0.26-1.64 2.53-3.74 0.16-5.54l-8.56 20.3c0.06-1.33-0.2-2.78 0.03-4.09 1.2-7.18 4.97-17.63 8.12-24.25 8.17-17.16 21.76-29.87 40.09-35.46 1.56-4.32 3.98-9.06 3.8-13.65-3.4 2.9-4.99 8.09-6.98 12.06-0.8 0.2-1.05-1.2-1.05-1.68-0.02-3.1 3.39-6.39 0.74-9.1l-5.39 10.15c-0.36-1.96 0.26-3.77 0.45-5.59 0.07-0.64 0.65-1.56-0.45-1.39-2.21 3.35-5 6.76-5.73 10.79-1.86 0.52-1.39-1.61-1.26-2.86 0.29-2.73 3.98-6.71 0.01-7.3l-6.04 13.33c-0.53-0.98-0.5-3.04-0.28-4.09 0.46-2.23 5.23-9.62 1.23-9.88 0.84 2.62-1.17 2.42-1.75 3.63-1.96 4.15-2.74 9.15-5.55 12.88-1.07-5.19 2.52-10.2 2.85-15.24l-1.85 0.05c-1.22 3.93-3.32 7.56-4.81 11.38-1.05 2.68-1.65 6.29-2.57 8.85-0.27 0.75-1.37 2.26-2.19 2.58l1.43-10.95 3.01-13.17c-1.48-0.31-2.19 2.18-2.78 3.25-2.62 4.7-3.43 10.51-6.73 14.52-0.79-2.71 0.7-4.75 1.11-6.82 0.72-3.66 1.25-7.45 2.22-11.1 0.34-1.27 3.36-4.09-0.15-4.3l-14.3 24.76c-0.95-3.43-0.2-6.95 1.46-9.99-0.32-7.11-4.31 2.83-5.2 4.98-1.3 3.15-2.02 6.96-3.58 10.08l-1.26-0.32c1.13-2.3 1.63-4.38 1.28-6.98-0.12-0.87-0.36-1.89-1.27-0.95l-3.82 14.6c-1.52 0.22-0.65-6.86-2.52-5.07-1.56 3.93 0.66 8.66-2.24 12.06-2.39-4.09 1.74-12.67 0.02-15.88-1.21-2.26-1.73 2.71-1.91 3.19-0.98 2.73-2.05 4.28-1.89 7.64l-2.23-0.04-0.65 4.46c-1.4 1.72-1.6-3.58-1.91-3.81-2.49 1.48-0.48 5.63-1.91 8.24l-1.87-4.14c-1.94-1.23-2.41 3.19-2.55 4.48-0.19 1.68 1 6.47-1.28 6.02v-18.73c0-10.7 14.76-27.27 23.29-33.21 18.32-12.78 55.89-25.31 77.12-16.41 5.38 2.26 9.99 6.31 15.77 7.39l-25.4-22.2c1.16-0.2 1.9 0.13 2.91 0.58 5.72 2.58 14.03 10.73 19.79 13.99 1.92 0.44 3.85 2.89 5.55 3.21 2.41 0.45-0.26-2.1-0.55-2.63-0.91-1.64-1.29-3.5-2.05-4.93-1.34-2.55-4.66-5.9-4.38-8.96l13.63 16.85c1.73 1.21 3.44 3.58 5.74 3.46 1.04-1-4.86-7.87-5.1-9.19-0.21-1.16 0.8-1.38 1.27-0.96 0.42 0.37 0.97 3.09 3.19 2.53 0.37-0.3-2.39-8.09-2.53-9.26-0.2-1.65 0.6-2.89 0.57-4.32-0.07-3.16-3.12-5.09-2.17-8 5.17 6.68 8.34 15.02 12.79 22.13 0.69 1.09 1.9 3.32 3.4 3.26l-4.48-16.78 0.67-2.26 2.55 6.98 1.28-2.17-5.09-20.04 2.95 3.37 0.86 3.61c3.19-0.88-1.54-7.32-0.64-8.25l3.81 2.53v-16.51l3.18 11.43c2.38 0.63 0.6-3.44 2.53-3.8l0.65 6.97c1.34 1.27 2.11-4.08 2.41-4.87 0.33-0.86 1.13-3.07 2.02-3.37-0.16 5.69-2.99 11.02-4.44 16.5 0.52 0.61 2.56-1.72 2.75-1.98 1.77-2.5 3.68-6.53 5.31-9.34 0.45-0.79-0.36-1.75 1.46-1.37-0.36 4.57-3.81 8.78-5.47 13.26-0.21 0.57-1.53 1.5 0.08 1.97 1.1 0.32 11.04-16.96 13.64-18.41 0.22 1.15-0.2 1.91-0.59 2.9-2.19 5.63-7.11 11.96-9.48 17.82-0.37 0.92-0.92 1.69-0.71 2.77l15.23-15.23c-0.87 2.31-2.77 4.81-4.25 6.82-1.94 2.62-6.65 7.22-7.81 10.01-0.11 0.29-0.16 1.04 0.31 0.94 3.62-2.39 5.89-5.87 9.21-8.58 0.5-0.41 1.25-1.67 1.9-0.63l-16.72 18.83c-1.9 4.15-4.03 8.57-3.59 13.23 1.35 0.29 1.45-0.68 2.02-1.47 4.79-6.66 8.85-13.73 14.46-19.81 9.9-10.72 29.97-24.7 45.23-20.43 11.27 3.15 8.04 11.89 5.26 20.75-0.76 2.41-5.48 11.38-4.48 12.75 0.29 0.41 8.15 1.6 9.89 2.18 15.56 5.25 26.19 20.37 27.29 36.51-2.77-1.52-2.82-5.53-4.2-8.18-0.75-1.43-7.47-11.93-8.17-12.15-0.31-0.1-1.6-0.2-1.6 0.34 1.54 5.76 5.11 11.18 4.45 17.45l-4.61-11.58-3-3.02 3.47 14.61c9.12 4.37 19.12 9.79 25.69 17.64 1.24 1.47 6.03 7.82 6.54 9.2 0.67 1.77-0.08 2.89 0.2 3.66 0.59 1.66 5.65 3.89 6.31 5.05 0.57 1 0.15 2.5 0.67 3.77 2.05 4.96 7.96 11.83 10.68 17.25 2.46 4.88 4.4 10.27 6.12 15.47-1.22-0.02-2.54-2.25-3.16-3.19-3.17-4.8-6.17-9.77-9.86-14.25-3.07-0.18 3.68 8.67 2.21 10.14l-8.57-13.32c-2.2-0.87 0.11 3.19 0.18 3.63 0.36 2.03 0.09 4.18 0.79 6.2l-1.29 0.01c-1.07-1.94-8.33-15.3-9.19-15.58-0.3-0.09-1.6-0.2-1.6 0.34 0.62 3.33 2.25 6.97 3.04 10.3 0.32 1.36 0 2.77 0.29 4.15 0.66 3.15 2.98 6.44 1.44 9.99l-6.22-24.25-2.98-4.31 3.18 32.37c-1.78-6.26-2.95-12.63-3.83-19.04-0.93-0.89-1.15 0.05-1.26 0.93-0.72 5.65 1.95 9.98 1.26 15.57l-0.95-0.62c-1.17-5.97-3.1-11.76-4.6-17.62-0.3-1.14-0.01-2.41-0.3-3.52-0.68-2.63-2.45-5.43-2.4-8.71-0.93-0.89-1.15 0.05-1.27 0.94-0.44 3.49 0.09 6.9 1.29 10.15l-0.64 6.68c-1.96-4.43-5.11-28.23-7.61-30.17-0.48-0.36-0.7-0.38-1.28-0.3-0.08 1.52 0.2 3.12-0.14 4.63-0.23 1-2.9 6.33-4.31 4.89 0.69-1.61 0.75-14.04-0.95-13.95-2.36 3.01-1.22 7.04-5.08 9.49-1.94-1.77-0.43-4.83-1.1-7.14l-2.09-6.8c-2.13-0.44-3.98 9.29-7.29 8.24v-11.74l-1.27-0.64c-1.37 1.26-1.49 3.36-3.8 2.87 0-1.89-2.72-8.84-4.14-9.53-1.35-0.65-2.72 7.1-3.81 7.61-1.91 0.44-1.75-4.31-3.16-5.06l-4.45 5.05c-1.6-1.22-0.82-3.34-0.96-5.07l-5.31 1.25-2.95-5.69-6.33 4.13c6.46 4.28 13.97 6.91 20.26 11.47 21.99 15.92 36.72 56.2 34.99 82.51-0.14 2.14-1.04 3.88-1.23 5.76-0.47 4.95 0.22 10.32-1.98 14.86l-3.16-1.27c-0.53 0.57 1.17 4.51-1.27 3.8l0.63-6.98-2.53 0.64c1.08-2.36-1.32-3.31-1.35-4.11-0.08-1.96 1.34-2.94 1.34-3.83-0.01-0.79-1.05-1.58-1.24-2.57-0.44-2.31 0.14-3.75 1.25-5.67-1.95-2.19-1.28 2.68-4.44 0.3 0.24 1.05-3.07 8.15-3.51 8.25-3.28 0.82-0.24-6.54-0.31-7.61-1.08-0.87-4.57 5.67-5.08 2.85 0.94-2.09 7.71-9.89 6.34-11.74l-3.49 3.17c-0.93 0.17-1.14-0.01-0.95-0.95 0.43-2.21 7.46-9.71 6.35-11.1-0.78-0.98-6.01 6.14-7.61 5.7 0.19-1.78 3.55-4.51 3.17-6.01-0.51-2.06-2.72 0.2-3.51 0.3-6.08 0.84 4.61-7.28 3.51-8.25-2.95-1.29-4.44 3.3-6.33 0.95l7.59-8.25c-0.67-1.53-3.24 0.52-4 1.06-1 0.71-4.42 4.96-4.87 2.13 2.18-2.96 4.85-6.03 6.68-9.2 0.48-0.83 1.28-1.25 0.93-2.56l-6.35 3.17c0-2.2 4.1-8.05 2.53-9.52-1.71-0.37-1.07 0.5-1.56 1.26-1.29 1.99-2.43 4.25-3.52 6.35l-1.26-0.32 1.91-6.02-5.08 1.27 5.06-10.48c-2.61-3.19-2.8 4.28-6.33 3.49l3.18-7.28c-2.35-2.74-1.63 1.32-3.81 0.93l0.62-4.43-1.9-0.01 1.27-5.07-4.76 3.15c-1.74-1.22 0.33-1.34 0.06-3.16-0.17-1.07-0.47-1.54-1.64-1.27l-2.22 5.08c-2.84-1.18 3.8-9.25-0.95-9.52-0.12 1.38-1.3 3.78-2.86 3.81l-0.33-5.09c-2.49-0.76-1.68 2.03-3.8 1.91 0.18-1.89 1.76-3.36-0.68-4.19l0.67-3.42-2.21 1.25-0.96-3.79c-2.58-0.62-0.7 3.73-3.17 3.17l-0.01-2.54-2.87 0.03-0.3-3.84h-1.9l0.01 1.45c-0.86 2.26-1.72-1.57-2.25-2.09-3.66-3.6-6.69-4.25-11.27-5.85-1.2-0.42-1.91-2.05-3.39-2.22-0.37-0.04-4.58 0.43-4.92 0.54-1.16 0.38-1.59 3.55-1.66 4.68-0.17 2.51 0.19 11.76 0.62 13.97 0.34 1.8 2.23 1.38 2.55 3.16 0.78 4.29-0.11 10.77 0.62 14.62 0.36 1.9 2.58 1.71 3.07 3.29 0.56 1.83-0.07 5.02 0.27 7.33 0.19 1.25 1.51 7.66 1.86 8.31 0.73 1.38 2.16 0.68 2.45 1.49l2.16 14.87c0.21 1.65 1.99 0.89 2.8 2.25 1.99 3.3 1.7 10.85 3.75 14.67 0.8 1.48 2.49 1.7 3 2.71 1.75 3.41 2.13 9.86 3.64 13.51 0.61 1.49 2.91 1.04 4.13 4.1 1.04 2.61 3.04 11.26 4.29 12.87 0.75 0.96 2.29 0.21 2.94 1.02 1.91 2.37 3.45 10.24 5.38 13.52 1.19 2.01 3.26 1.7 4.36 3.25 1.33 1.86 4.68 12.45 5.55 13.19 0.35 0.3 2.01 0.16 2.9 0.57 1.49 0.69 5.95 10.98 7.08 13.25 1.04 1.27 2.88 0.49 4.18 1.53 1.42 1.15 5.12 10.38 6.84 12.55l4.12 0.93c2.03 2.63 5.21 10.09 7.45 11.92 1.4 1.13 2.97 0.25 4.15 0.94 1.3 0.75 6.35 10.31 8.83 12.11 1.97 1.44 3.29 0.47 4.35 1.05 0.87 0.47 6 8.83 8.35 10.38 1.63 1.08 2.81 0.7 4.2 1.51 3.04 1.76 6.46 8.55 9.45 10.23 1.87 1.05 3.2 0.21 4.64 0.77 1.31 0.52 7.21 8.68 9.71 9.65 1.53 0.59 3.02 0.05 4.41 0.66 2.71 1.19 7.35 7.83 10.02 9.08 1.98 0.93 3.47-0.36 5.21 0.43 2.51 1.15 8.14 7.93 10.85 8.91 1.55 0.55 2.49-0.65 4.36-0.02 2.8 0.95 9.22 7.85 11.94 8.49 1.43 0.34 2.14-1.47 3.52-1.12 0.86 0.22 5.88 4.51 7.35 5.42 1.13 0.72 8.49 5.18 8.97 4.67l-0.28-3.2-9.85-23.17 1.24-1.56c1.85 4.88 4.41 10.32 6.9 15.01 0.28 0.53 2.35 5.12 3.26 4.03-0.7-2.48-0.95-5.17-1.54-7.65-3.2-13.44-7.55-28.73-9.72-42.35-0.19-1.23-0.95-3.87 1.1-3.32l13.64 59.69c1.81 2.73 5.28-4.14 6.67-5.43 4.77-4.43 11.41-6.67 17.79-5.37 0.04 0.92-2.29 0.96-3.04 1.08-4.91 0.8-7.81 1.31-11.88 4.63-2.06 1.67-9.9 11.16-5.08 12.06 12.9 0.3 25.86-0.39 38.75-0.03 4.14 0.12 11.88 2.3 15.22 0.03 1.93-1.31 8.67-10.85 10.66-13.5 1.7-2.26 5.65-9.21 6.95-10.46 1.26-1.21 2.8 0.07 4.3-1.05 3.14-2.35 5.09-9.64 8.22-12.21 1.42-1.16 2.2 0.27 3.5-0.86 1.95-1.69 5.86-12.12 7.57-13.41 1.16-0.88 2.56-0.13 3.61-0.99 2.05-1.68 4.47-10.61 6.35-12.54 1.22-1.25 2.15-0.78 3.08-1.37 2.34-1.49 4.57-10.68 6.36-13.32 0.95-1.41 2.71-1.32 3.77-2.57 2.23-2.68 3.74-11.39 5.46-13.6 0.71-0.92 2.47-0.32 3.19-1.25 1.8-2.33 2.79-11.46 4.88-14.16 1.06-1.37 2.36-0.95 3.21-2.51 1.81-3.32 1.98-9.96 3.76-13.38 0.71-1.37 2.18-0.73 2.93-2.14 1.88-3.52 2.04-10.52 3.42-14.36 0.44-1.26 2.4-1.23 2.92-2.8 1.27-3.83 1.17-10.4 2.16-13.71 0.43-1.46 2.46-1.5 2.94-2.78 1.4-3.8 1.49-10.86 2.09-15.04 0.31-1.11 1.8-0.77 2.3-1.19 1.72-1.44 0.26-11.63 0.94-14.62 0.47-2.09 2.68-2.79 3.02-4.59 0.76-3.97-0.88-10.87 0-14.47 0.18-0.7 1.53-0.74 1.97-1.33 2.03-2.7-0.58-12.77-0.08-16.47l2.6-1.47c0.35-4.89-2.02-10.35-1.33-15.17 0.29-2.08 1.48-2.19 1.81-3.27 1.35-4.45-2.07-10.4-1.83-14.48 0.1-1.79 1.29-2.28 1.68-3.45 1.18-3.6-2.69-11.35-2.27-15.58 0.14-1.44 1.94-1.91 1.82-3.07-0.07-0.63-0.93-1.39-1.04-2.16-1.03-6.77-1.87-8.98-1.42-15.76 0.1-1.51-1.11-3.59-0.62-5.37-4.53 0.39-9.1 1.48-12.39-2.53-1.52-0.37-1.02 2.05-0.97 2.87 0.17 2.62 1.6 4.63 1.29 7.28-1.99-0.37-2.74-6.34-3.49-6.34-1.76 0.85-0.49 4.51-1.02 5.04l-1.88 0.38c-0.52 2.62 1.11 9.94 0.35 11.09-0.47 0.72-1.69-0.03-1.65 2.19 0.04 2.19 1.66 3.25 1.34 5.41l-1.65-1.18-3.73-6.43c-2.13 1.48-0.06 2.88 0.17 4.27 0.12 0.74 1.24 8.14-0.49 7.15l-3.17-3.17 4.43 15.87-2.78-3.24c-0.45-1.75-1.3-3.31-2.14-4.87-0.42-0.79 0.45-1.78-1.42-1.41l2.53 12.07-3.49-3.81c-2.42-0.07 0.01 3.31 0.17 4.27 0.27 1.56 0.06 3.06 0.42 4.66 0.52 2.26 2.35 4.19 1.63 6.93l-2.79-3.24-1.64-3.1 0.94 12.06c-1.63-2.96-1.12-7.18-4.12-9.52v13.01c0 0.12-1.03 1.13-1.27 0.95-0.14-0.97-0.56-1.85-0.65-2.85-1.08-12.16 0.31-25.45 1.91-37.46 1.51-11.36 3.69-22.17 6.63-33.37 1.13-4.31 3.1-8.6 4.17-12.96l-1.26-0.96c0.27 2.2-2.19 0.63-3.52 1.89-1.88 1.78-1.88 9.84-2.28 12.95-0.18 1.4-0.98 2.59-1.15 3.93-0.4 3.37 1.63 9.32-2.58 9.15l-0.12-5.28-1.78-1.06-8.9 36.82c-2.72-1.9 0.12-7.36 0.6-9.87 0.28-1.43-0.02-3.08 0.31-4.78 0.66-3.38 2.77-5.33 0.99-9.47-3.01 2.72-1.9 9.4-4.43 12.06l-0.12-4.65-1.79-1.06c-1.13 5.03-2.33 11.12-5.4 15.23l1.58-15.24-2.53 2.35-5.72 16.06c-2.98 0.58 0.45-5.02-2.53-4.44 0.83 2.41-1.55 4.1-1.86 4.93-0.26 0.69-0.01 1.8-0.34 2.7-1.57 4.23-3.34 8.42-4.8 12.69-2.1 0.46-0.94-1.46-1.34-2.77-0.24-0.78-0.97-1.39-1.52-0.42-1.19 2.14 0.73 6.15-1.25 8.26-1.89-0.97 0.17-9.26-2.88-7.31-2.02 1.95-0.84 4.73-1.29 6.96-0.48 2.46-2.14 5.16-1.87 7.98l-2.53-3.18c-0.19 1.33-0.62 15.4-2.54 13.97 0.03-0.63-0.37-1.17-0.47-1.76-0.39-2.31 0.85-6.43-2.07-6.49-1.02 8.27-1.22 16.85-3.82 24.75-0.67 0.26-1.26-2.09-1.26-2.22v-11.43c0-0.26-0.99-1.38-1.6-0.32-2.17 3.73-1.97 11.79-4.44 15.88-0.85-1.21 0.46-8.32-1.27-8.24-2.05 2.43-3.63 5.22-5.64 7.68-0.55 0.66-0.02 1.59-1.65 1.19-1.23-1.59 7.23-14.36 6.98-16.17-0.09-0.62-0.79-1.12-1.61-0.33-0.36 0.35-5.34 7.65-5.36 4.13 0-0.16 1.32-2.03 1.57-2.86 15.36-50.21 42.69-87.56 81.31-122.49l0.91-2.9c-2.24-1.66-3.07 3-4.45 3.84-1.27 0.77-3.53-1.93-4.8 1.49l-2.17-0.58c0.41 3.45-2.84 3.52-3.5 4.45-0.57 0.79-0.06 2.49-1.27 3.16l-3.49-3.15c0.25 2.86-0.07 5.07-2.87 6.35-0.31 0.05-0.24-0.93-0.79-1.23-3.12-1.64-2.46 0.35-3.17 0.57-0.61 0.19-1.84-0.16-2.04 0.03-0.13 0.13 0.07 1.85-0.19 2.66-0.7 2.12-1.72 3.48-1.1 6.21-1.92 0.46-1.03-1.24-1.63-2.48-0.31-0.65-1.67-3.6-2.49-3.22-2.29 1.05 0.71 5.39-1.27 6.97l-3.18-6.97c-2.26 0.98 1.01 9.85-1.28 12.05-1.3 0.37-1.28-2.22-1.4-3.03-0.27-1.85 0.38-4.52-1.44-5.22-1.04 1.37 0.37 5.56-1.91 5.08 0.06-0.85-0.02-1.68-0.38-2.47-4.62-10.26-3.1 2.02-3.5 2.43l-1.83 0.05 0.33 3.8-3.51-1.9v9.52c-3.43-1.46-1.17-7.28-4.44-7.62-0.33 4.78 0.23 9.33 1.26 13.96-3.16 1.16-2.03-4.24-4.11-3.8-1.47 0.31-0.62 9.04-2.86 6.98-1.01-0.92-0.42-6.64-0.79-8.43-0.17-0.82-1.14-2.59-1.6-3.5-0.42-0.85 0.42-1.75-1.43-1.4v11.11c0 0.12-1.03 1.13-1.26 0.95-0.63-2.34-1.44-5.25-2.4-7.45-0.3-0.69-0.56-1.6-1.41-0.8-1.93 1.8 2.87 15.67 1.58 19.04-2.47-2.94-3.02-7.07-4.8-10.43-0.47-0.88-0.32-1.91-1.87-1.62l1.42 8.42c1.12 2.27 2.21 4.12 1.75 6.81-1.6 0.35-1.11-0.41-1.64-1.19-0.43-0.62-3.53-7.81-4.7-6.43-0.28 3.84 1.46 6.86 1.6 10.8 0.18 5-3.88-3.68-5.73-4.44-1.11-0.03-0.71 5.96-0.97 7.29-0.2 1.02 0.43 1.1-1.25 0.95l-1.91-12.06c-0.59-0.27-1.9 0.57-1.9 0.95v16.19c-2.49-1.57 0.18-7.21-3.8-7.61l-1.28 15.23c-1.81 0.33-1.04-0.45-1.43-1.4-0.76-1.86-1.07-6.99-2.07-7.48-1.38-0.67-0.84 2.68-1.9 3.79-0.87 0.91-2.87 1.27-4.12 1.28-0.94-0.94 3.74-9.25 3.83-11.1 0.07-1.49-0.65-0.98-1.86-0.91-0.56 1.06-0.11 2.94-1.97 2.48-0.83-3.04 3.63-5.85 0.95-8.23-0.87 0.03-4.26 8.55-6.35 8.87-0.49-2.02 2.91-4.61-0.95-5.07l-4.13 8.88-0.32-4.44-3.8 3.17c0.67-9.1-3.37-3-7.32-0.64-0.83 0.5-1.54 0.7-1.56-0.31-0.03-1.75 6.71-5.83 6.33-8.57-0.85-0.86-6.98 4.67-8.88 3.49 2.47-2.39 5.06-4.68 7.61-6.99 7.81-7.09 13-11.87 21.55-18.44 17.16-13.19 38.63-33.2 58.98-40.07 9.96-3.36 20.57-4.9 30.79-7.3 1.4-0.58 1.39-2.47 0.75-3.71-0.95-1.72-1.94 1.87-2.55 1.9l-2.2-4.77-3.19 0.97-0.01-3.18-1.88 0.01-3.19 6.35-0.01-5.72c-2.49-0.66-1.18 1.65-3.16 1.27-0.01-1.13 0.37-4.03-0.98-4.43-2.91-0.88-3.51 5.94-6.64 5.06l0.63-5.07c-2.37-0.04-2.7 2.9-4.44 3.81l-0.96-4.43-2.21 2.52c-0.35-1.16-0.18-2.99-1.91-2.54l-4.13 10.16c-1.98-0.79 0.48-5.54 0.8-6.81 0.47-1.86-0.31-3.59 1.42-5.24-4.17 0.59-4.21 6.03-7.3 8.24-1.65-1.05 2.38-7.8 0-7.6-1.14 0.09-3.76 6.68-5.08 7.6-0.65-1.43 0.26-4-2.21-3.8l-4.15 5.7-0.8-1.44 0.81-4.89-6.04 8.24-1.26-0.32 2.54-7.29c-0.49 0.02-1.11-0.12-1.53 0.05-1.05 0.43-5.31 7.26-6.1 8.83l-1.26-0.32c-0.31-2.59 2.16-5.12 2.85-7.32 0.36-1.13 0.34-1.08-0.63-1.87-1.04 0.1-9.29 13.83-11.73 14.59l5.71-14.28c-0.58-1.01-1.44 0.15-1.93 0.61-2.27 2.13-4.35 6.14-6.71 8.53-0.66 0.67-0.91 1.61-2.16 1.33l5.7-12.39-0.93-0.93-16.53 14.58-0.93-0.93 3.81-6.36c-0.46-2.7-1.4-0.04-1.98 0.53-3.3 3.26-6.39 6.76-9.78 9.94l1.28-5.07-8.26 8.25 0.01-3.8c-2.5 1.45-5.46 7.26-7.64 8.24-0.27 0.12-1.04 0.16-0.94-0.31 1.31-2.81 4.73-5.47 4.77-8.57-3.04 1.34-4.61 4.55-7.37 5.98-0.84 0.44-2.54-0.31-3.45 1.62l-2.51-1.89-3.83 4.44c-2.48-0.01 0.3-2.49 0.34-3.48l-1.27-0.31c0.22 1.53-1.21 1.02-1.94 1.69-1.81 1.68-3.33 4.65-6.01 5.91-0.41-1.47 2.1-4.21 3.27-5.64 16.82-20.29 53.74-32.75 79.32-36.21 20.59-2.78 32.9 3.43 51.88 7.17 1.48 0.29 3.79 2.77 4.25-0.86l-4.44-0.33c-0.32-1.36 1.59-1.12 2.51-1.92 0.4-0.35 1.42-2.11 1.3-2.2l-7.87 0.04-0.97-2.31-9.57 1.63c-0.45-3.27 4.49-2.68 4.44-6.34l-12.69 1.89c-0.36-3.47 4.98-2.99 5.71-6.34-4.33-0.1-8.02 1.88-12.06 2.53-1.65-1.63 4.62-4.3 5.6-4.88 0.78-0.45 1.76 0.37 1.38-1.46l-30.47 1.26c1.02-2.18 4.11-0.97 6.02-1.27 3.02-0.46 7.49-1.11 9.85-3.17h-28.89c-0.14 0-1.16-1.09-0.95-1.26 3.89-1.06 8.23-0.06 11.96-1.09 1.13-0.32 1.64 0.2 1.37-1.45-4.31-0.4-9.46 0.53-13.65 0zm135.55 438.7c0.16-3.47 0.19-7.65 0.7-11.05 0.43-2.9 3.37-12.23 3.12-14-0.11-0.84-3.9-5.89-4.76-7.98-1.46-3.54-5.76-21.83-8.37-22.74-2.7-0.94-18.42 3.79-22.07 5.03-8.39 2.83-17.31 6.88-24.67 11.19-0.63 0.36-2.95 0.23-2.98 1.14-0.04 1.01 1.58 0.88 2.49 0.6 4.28-1.32 8.85-3.45 13.33-4.45 9.29-2.08 18.18-1.55 27.67-1.57l6.65 2.56-17.45-0.63c-14.42 0.83-28.53 4.83-41.51 11.19-4.79 2.34-9.27 5.51-14.05 7.87-0.2 1.05 0.24 1.32 1.1 1.74 3.65 1.75 9.52 2.36 13.51 3.63 22.23 7.09 36.83 12.9 60.57 16.25 2.17 0.3 4.24 1.81 6.72 1.22zm-9.53-73.01c-29.18 1.04-52.98 14.35-69.34 38.26l-3.03 5.54 2.56-0.92c21.33-13.55 44.51-25.34 69.82-28.92-1.12-4.52-0.84-9.39-0.01-13.96zm-15.68-15.42c-3.35-4.18 0.07-8.73 0.45-12.83 0.38-4.03-1.09-8.14-0.57-12.63 0.53-4.52 2.94-7.68 5.02-11.51 0.01-1.09-6.95-7.97-7.62-7.29l1.93 4.09c-1.86 0.63-1.5 2.05-2.31 3.47-1.35 2.34-4.93 6.82-5.62 8.98-0.71 2.2-0.01 4.19-0.64 6.34-0.94 3.19-6.51 7.98-7.62 11.44-0.64 2.01-0.02 3.74-0.69 5.65-1.22 3.42-8.13 9.53-9.52 12.72-0.36 0.83 0.78 1.6 0.89 2.37 0.23 1.55-7.3 10.26-8.9 12.49-0.42 0.58-1.1 0.81-1.69 1.15l-0.12 4.94c0.94 0.21 1.18-0.03 1.85-0.45 4.31-2.71 8.3-5.68 12.94-7.93 12.34-5.96 24.83-7.63 38.41-8.25l2.04-7.49c-4.69 0.41-15.21-1.51-18.23-5.26zm-445.88-213.77l-1.9-0.01c0.79 2.32-0.96 2.43-1.26 3-0.66 1.25-5.46 9.89-5.08 10.34 0.52 0.62 2.83-2.03 3.16-2.41 2.57-2.94 4.67-7.06 5.08-10.92zm-1.9-7.63c2.56-0.01 3.59-3.46 1.59-5.06zm34.91-15.23c-0.2-0.18-3.95 1.07-4.57 1.33-0.98 0.44-0.39 2.03-3.59 0.62-2.51 5.9-3.41-0.67-4.22-0.67-1.02 0.85-0.98 2.17-1.86 3.21-1.07 1.26-2.84 1.42-3.8 2.54-0.82 0.94-4.11 8.81-3.54 9.47l19.43-13.58zm113.01-0.01l1.92-0.3 0.55-0.7-1.53-4.07c-2-0.03-0.5 3.98-0.94 5.07zm-124.44-17.78c-2.51-0.55-1.8 1.09-2.88 2.52-0.94 1.26-2.61 1.85-2.2 3.83l4.8-0.59zm-10.16-0.63c-2.73-0.75-1.78 2.77-4.12 3.81-1.35-6.96-5.13 4.68-4.12 5.71 2.56-0.69 9.05-0.8 10.53-2.48 0.84-0.96 2.39-5.38 0.56-5.77-1.27-0.26-3.2 4.64-3.48 5.71-3.05-0.78 1.44-6.21 0.63-6.98zm121.92 12.06c-3.01-5.64-8.07-10.44-13.34-13.96 0.21 3.92 5.13 6.08 5.07 10.15l-6.98-5.71c0.07 3.23 4.61 4.71 3.49 7.61-1.41-0.44-3.98-3.88-4.76-3.49-1.19 0.59 0.1 1.47 0.4 2.15 0.34 0.76 1.3 2.96 1.76 3.31 1.6 1.23 7.78 1.04 10.05 1.38 3.58 0.52 2.9 0.84 6.51 0.71 1.21-0.04 9.76 5.94 7.98 0.68-1.47-4.3-3.96-7.36-5.76-11.08-1.47-0.26-1.51 0.28-1.23 1.56 0.45 2.15 3.29 4.34 2.2 6.69-0.69-0.9-7.68-10.64-8.57-9.52l4.44 9.2zm333.3-22.85c-3 0.15-2.26 2.99-6.34 1.27l1.27 15.24 2.73-0.77zm-377.76-1.27c-1.66-2.04-2.94 7.97-3.16 8.88l3.72-2.33zm26.67-17.78c-2.97 0.34-3.53 5.05-6.97 3.17l-0.96 2.53-2.22-1.25c0.74 3.22-2.42 4.52-2.55 7.61-1.5-0.42-0.15-5.25-0.63-5.71l-1.96 0.37-2.8 7.88c-0.53-0.88-0.1-7.25-1.93-5.1-1.33 1.57-4.77 11.84-3.8 13.37 0.89 1.38 5.33-1.84 6.56-2.35 7.32-3.04 15.18-5.51 23-6.84l1.24-4.15-2.53 0.64c0.12-4.26-4.56-6.39-4.45-10.17zm339.51-5.57c-0.15-0.24-2.52-2.35-3.01-3.32l1.3 7.59 1.86 0.04c-0.18-1.22 0.41-3.36-0.15-4.31zm43.24-43.86c-10.22-5.65-22.88-1.37-31.33 5.64-0.62 0.52-5.5 5.67-4.77 6.33 11.72-3.02 23.09-8.26 35.14-9.62l0.76-0.5zm-85.61-12.15c2.16-5.68-0.56-11.33-1.28-17.14-1.35 1.33-2.86 1.05-4.4 1.63-0.49 0.18-0.96 1.04-1.79 1.38-1.15 0.49-2.78 0.02-3.95 1.13-0.26 0.24-2.35 4.15-2.45 4.58-0.86 3.95 6.02 6.97 8.79 9.37 2.32 2 4.76 4.22 6.96 6.35 0.92 0.89 1.57 3.66 2.69 1.42 0.62-1.22 1.65-3.89 1.79-5.22 0.43-4.17-2.99 1.47-4.46 0.31l2.53-7.61zm79.99 436.79c-1.3-1.98-1.79-4.99-3.8-6.34l-0.38 5.74z"/>
	<path id="Path 2 copy" fill-rule="evenodd" class="s0" d="m436.85 700.65c2.84 3.05 9.65 8.67 11.53 11.58 0.44 0.68 0.69 1.12 0.52 1.97l-15.01 0.83-16.65-17.77-6.79 1.14 1.48 18.62-12.62 0.82-2.7-50.93c5.84-0.45 11.8-1.31 17.66-1.55 7.56-0.3 17.88-1.23 22.64 6 3.63 5.5 2.17 14.25-2.46 18.65-1.26 1.2-3.44 1.65-3.95 3.31 0 0.51 5.44 6.34 6.35 7.33zm-25.38-26.4c-0.72 0.13-2.39 0.54-2.57 1.3l1.56 13.36c1.7 1.18 10.5-0.84 12.47-2.08 4.19-2.64 4.67-9.15 0.34-11.85-2.03-1.26-9.3-1.16-11.8-0.73z"/>
	<path id="Path 3 copy" fill-rule="evenodd" class="s0" d="m251.26 659.09l-0.8 2.26-21.51 18.63 15.63 30.32-14.79-2.75-11.35-21.33c-1.55-2.35-4.8 1.31-5.34 2.91-0.95 2.8-1.89 15.01-3.03 15.91l-12.01-3.05c-1.01-1.44 1.45-8.39 1.83-10.49 1.24-6.92 2.56-13.72 3.88-20.61 0.59-3.04 2.09-17.62 4.04-18.81 1.91 0.92 10.58 1.36 11.11 2.91l-3.6 20.23 0.6 1.68c1.46 0.29 18.77-17.09 21.44-19.23z"/>
	<path id="Path 4 copy" fill-rule="evenodd" class="s0" d="m404.9 1.71c17.44-0.14 25.95 12.21 22.15 28.83-5.27 23.02-41.13 21.29-43.2-3.63-1.17-14.12 6.26-25.08 21.05-25.2zm0.01 8.32c-11.93 1.18-13.57 23.6-3.33 27.55 17.28 6.66 21.75-29.37 3.33-27.55z"/>
	<path id="Path 5 copy" fill-rule="evenodd" class="s0" d="m269.47 674.92c12.37-1.69 25.51 4.84 26.12 18.5 0.79 17.94-12.83 25.77-29.3 21.06-8.73-2.49-14.21-9.13-13.91-18.37 0.36-10.93 5.7-19.63 17.09-21.19zm11.68 11.06c-5.14-6.29-13.69-1.99-15.69 4.84-2.6 8.9 0.61 18.75 11.57 16.03 6.75-1.68 7.9-16.24 4.12-20.87z"/>
	<path id="Path 6 copy" fill-rule="evenodd" class="s0" d="m455.84 693.28c4.57-5.05 15.01-6.41 21.41-8.07 0.8-8.31-10.29-7-15.67-5.38-1.68 0.51-6.77 3.54-7.89 2.69l-0.85-7.23c9.13-3.42 30.55-9.33 35.31 2.73 1.8 4.56 2.31 12.5 3.14 17.47 0.62 3.71 1.67 7.38 2.12 11.13l-0.51 0.63c-1.46 0.2-2.91 0.98-4.31 1.26-1.17 0.22-6.62 0.87-7.12 0.14l-1.1-2.78c-6.09 6.49-19.01 10.56-25.33 2.49-3.87-4.93-3.19-10.67 0.8-15.08zm20.77-1.8c-3.54 0.48-11.87 3.07-12.03 7.38-0.33 8.51 11.12 6.83 14.64 2.51 1.35-1.66 0.37-7.1-0.36-9.05-0.45-1.2-1.17-0.99-2.25-0.84z"/>
	<path id="Path 7 copy" fill-rule="evenodd" class="s0" d="m219.63 15.48l-11.07 23 19.43 16.24 1.66 2.51-12.4 2.13-14.67-12.62-1.87-0.63c-3.21 5.76 1.62 11.58 1.17 17.46l-9.47 1.96-10.01-41.07 10.49-2.29 4.19 17.8 11.09-21.76z"/>
	<path id="Path 8 copy" fill-rule="evenodd" class="s0" d="m339.22 691.93c-0.77 0.53-6.63-3.74-8.32-4.19-8.09-2.17-15.15 1.94-15.63 10.58-0.81 14.46 13.72 16.16 23.11 8.64 2.26 2.78-0.43 6.54 0.81 9.68-0.18 0.63-4.97 2.24-5.94 2.44-8.37 1.73-21.82-0.27-27.11-7.69-7.09-9.96-2.41-27.53 9.69-31.44 5.45-1.77 16.62-1.59 21.76 1.1 3.72 1.94 2.15 7.3 1.63 10.88z"/>
	<path id="Path 9 copy" fill-rule="evenodd" class="s0" d="m518.87 714.57c-2.43 2.2-7.58 3.99-10.81 4.5-0.86 0.14-6.65 0.64-7.03 0.58-1.7-0.31-2.36-6.5-2.34-8.25 1.47-1.29 3.29-0.03 4.92-0.11 4.42-0.23 5.98-3.41 6.43-7.38l-5.71-29.26c-1.77-1.95-6.43 1.17-7.41-0.11-0.51-0.66-1.65-6.24-0.72-6.85 3.11 0.04 16.53-4.64 18.14-2.49l8.08 36.46c0.38 5.38 0.74 9.01-3.55 12.91z"/>
	<path id="Path 10 copy" fill-rule="evenodd" class="s0" d="m259.53 23.46c7.63 7.09 6.97 22.54-2.58 27.95-14.99 8.49-30.83-3.56-26.82-20.15 2.74-11.35 21.4-15.23 29.4-7.8zm-18.02 5.55c-4.6 5.07 0.51 22.56 10.04 16.44 5.79-3.72 2.66-17.33-3.29-18.25-1.92-0.3-5.42 0.34-6.75 1.81z"/>
	<path id="Path 11 copy" fill-rule="evenodd" class="s0" d="m356.03 43.04c-0.33 1.36-7.89 0.19-9.46 0.84l-0.83-3.33c-5.72 5.65-16.52 6.68-20.26-1.48-5.17-11.27 6.89-14.56 15.25-15.79 1.64-0.24 5.13 0.85 5.31-1.4 0.55-6.9-14.94-5.02-18.69-2.53-1.12-0.09-1.27-6.19-0.28-6.95 7.09-1.99 24.54-4.12 27.97 4.35 0.18 0.43 0.99 3.27 0.99 3.46zm-10.83-14.61c-3.35 0.69-9.3 0.16-10.63 4.28-2.46 7.65 10.66 6.66 11.45 2.54 0.2-1.05 0.32-6.62-0.82-6.82z"/>
	<path id="Path 12 copy" fill-rule="evenodd" class="s0" d="m437.32 23.83l0.81-6.15c0.59-0.84 8.96-0.66 10.6-0.52 5.21 0.43 15.98 3.01 16.95 9.21 0.4 2.61-2.75 25.39-3.82 26.17l-8.97-1.14-0.81-3.06c-7.84 4.97-20.39 2.29-19.82-8.66 0.54-10.24 12.61-9.17 19.84-9.19 1.58-0.01 3.1 1.3 3.94-0.8-1.07-8.32-12.7-5.98-18.72-5.86zm5.71 19.9c1.56 1.67 8.07 1.73 9.85 0.39 1.05-0.79 2.13-6.59 1.46-7.52-2.54-0.84-8.43-1.1-10.55 0.66-1.51 1.24-2.09 5.04-0.76 6.47z"/>
	<path id="Path 13 copy" fill-rule="evenodd" class="s0" d="m511.37 38.31c-0.05-1.57 0.48-6.62 2.45-6.65 7.52 0.72 24.16 3.21 25.28 12.64 0.7 5.89-6.18 19.42-7.47 25.78-2.9-1.38-10.31-1.22-8.01-5.6-5.08 0.98-8.73 2.26-13.76 0.1-5.07-2.17-6.95-7.23-5.45-12.35 2.97-10.11 16.63-6 24.16-5.08 1.71-4.14-1.53-6.08-4.96-7.45-0.64-0.25-3.89-1.39-4.17-1.39zm15.59 14.48c-4.66-1.81-15.1-2.67-12.7 5.18 0.8 2.62 7.32 3.16 9.53 2.5 1.97-0.59 2.36-5.86 3.17-7.68z"/>
	<path id="Path 14 copy" fill-rule="evenodd" class="s0" d="m504.12 28.85c0.03 2.27-0.38 4.96-1.91 6.7l-19.23 13.34 0.32 1.1 15.22 3.39-1.6 6.97-28.2-6.44 1.42-5.89 19.51-14.45-15.59-3.62 1.18-6.61z"/>
	<path id="Path 15 copy" fill-rule="evenodd" class="s0" d="m298.61 15.55l0.63 8.28c-2.84-0.09-5.09-2.36-8.11-2.74-9.51-1.17-13.38 8.09-9.16 15.84 2.65 4.87 9.93 4.52 14.12 1.84 1.52-0.97 2.23-2.98 4.26-2.69 0.99 6.86 2.08 9.2-5.31 11.1-15.17 3.9-27.23-4.29-24.61-20.71 1.8-11.28 19.08-15.33 28.18-10.92z"/>
	<path id="Path 16 copy" fill-rule="evenodd" class="s0" d="m348.97 719.21c-2.18-0.61-0.78-3.39-0.79-4.73-0.06-10.73-0.27-21.62 0-32.25 0.01-0.5 0.37-1.94 0.87-2.04 3.46 0.55 7.24 0.49 10.77 0.05l0.59 37.59-0.86 1.38c-2.81-0.5-8.15 0.69-10.58 0z"/>
	<path id="Path 17 copy" fill-rule="evenodd" class="s0" d="m315.36 12.72l2.2 31.35c-0.58 1.78-7.14 0.38-9.06 1.43l-0.9-1.35-2.23-30.9z"/>
	<path id="Path 18 copy" fill-rule="evenodd" class="s0" d="m499.67 651.94c0.33-0.54 9.92-2.48 10.66-2.26 1.66 0.51 1.89 5.72 2 7.38l-10.76 3.07c-1.15-0.29-2.46-7.28-1.9-8.19z"/>
	<path id="Path 19 copy" fill-rule="evenodd" class="s0" d="m348.22 673.48c0.18-3.32-1.69-8.13 2.99-8.31 0.98-0.03 4.06-0.01 4.99 0.05 5.93 0.38 4.5 3.94 3.65 8.66z"/>
	<path id="Path 20 copy" fill-rule="evenodd" class="s0" d="m304.33 7.6l-0.05-6.57c3.08-0.43 6.23-0.75 9.33-1.02 2.88-0.26 1.93 5.61 1.26 7.43-1.66 0-9.97 1.05-10.54 0.16z"/>
</svg>